<svg width="10" height="10" viewBox="0 0 10 10" fill="none" xmlns="http://www.w3.org/2000/svg">
<path d="M4.33331 5.66658H0.99998C0.811091 5.66658 0.652757 5.6027 0.52498 5.47492C0.397202 5.34714 0.333313 5.18881 0.333313 4.99992C0.333313 4.81103 0.397202 4.6527 0.52498 4.52492C0.652757 4.39714 0.811091 4.33325 0.99998 4.33325H4.33331V0.999919C4.33331 0.81103 4.3972 0.652696 4.52498 0.524919C4.65276 0.397141 4.81109 0.333252 4.99998 0.333252C5.18887 0.333252 5.3472 0.397141 5.47498 0.524919C5.60276 0.652696 5.66665 0.81103 5.66665 0.999919V4.33325H8.99998C9.18887 4.33325 9.3472 4.39714 9.47498 4.52492C9.60276 4.6527 9.66665 4.81103 9.66665 4.99992C9.66665 5.18881 9.60276 5.34714 9.47498 5.47492C9.3472 5.6027 9.18887 5.66658 8.99998 5.66658H5.66665V8.99992C5.66665 9.18881 5.60276 9.34714 5.47498 9.47492C5.3472 9.6027 5.18887 9.66658 4.99998 9.66658C4.81109 9.66658 4.65276 9.6027 4.52498 9.47492C4.3972 9.34714 4.33331 9.18881 4.33331 8.99992V5.66658Z" fill="#222222"/>
</svg>
