<svg width="12" height="12" viewBox="0 0 12 12" fill="none" xmlns="http://www.w3.org/2000/svg">
<path d="M6.00002 8.38341C5.91113 8.38341 5.8278 8.36953 5.75002 8.34175C5.67224 8.31397 5.60002 8.26675 5.53335 8.20008L3.13335 5.80008C3.00002 5.66675 2.93613 5.51119 2.94169 5.33342C2.94724 5.15564 3.01113 5.00008 3.13335 4.86675C3.26669 4.73342 3.42502 4.66397 3.60835 4.65841C3.79169 4.65286 3.95002 4.71675 4.08335 4.85008L5.33335 6.10008V1.33341C5.33335 1.14453 5.39724 0.986192 5.52502 0.858415C5.6528 0.730637 5.81113 0.666748 6.00002 0.666748C6.18891 0.666748 6.34724 0.730637 6.47502 0.858415C6.6028 0.986192 6.66669 1.14453 6.66669 1.33341V6.10008L7.91669 4.85008C8.05002 4.71675 8.20835 4.65286 8.39169 4.65841C8.57502 4.66397 8.73335 4.73342 8.86669 4.86675C8.98891 5.00008 9.0528 5.15564 9.05835 5.33342C9.06391 5.51119 9.00002 5.66675 8.86669 5.80008L6.46669 8.20008C6.40002 8.26675 6.3278 8.31397 6.25002 8.34175C6.17224 8.36953 6.08891 8.38341 6.00002 8.38341ZM2.00002 11.3334C1.63335 11.3334 1.31946 11.2029 1.05835 10.9417C0.797243 10.6806 0.666687 10.3667 0.666687 10.0001V8.66675C0.666687 8.47786 0.730576 8.31953 0.858354 8.19175C0.986131 8.06397 1.14446 8.00008 1.33335 8.00008C1.52224 8.00008 1.68058 8.06397 1.80835 8.19175C1.93613 8.31953 2.00002 8.47786 2.00002 8.66675V10.0001H10V8.66675C10 8.47786 10.0639 8.31953 10.1917 8.19175C10.3195 8.06397 10.4778 8.00008 10.6667 8.00008C10.8556 8.00008 11.0139 8.06397 11.1417 8.19175C11.2695 8.31953 11.3334 8.47786 11.3334 8.66675V10.0001C11.3334 10.3667 11.2028 10.6806 10.9417 10.9417C10.6806 11.2029 10.3667 11.3334 10 11.3334H2.00002Z" fill="#222222"/>
</svg>
