<svg width="25" height="25" viewBox="0 0 25 25" fill="none" xmlns="http://www.w3.org/2000/svg">
<path d="M9.5 22.0449H15.5C20.5 22.0449 22.5 20.0449 22.5 15.0449V9.04492C22.5 4.04492 20.5 2.04492 15.5 2.04492H9.5C4.5 2.04492 2.5 4.04492 2.5 9.04492V15.0449C2.5 20.0449 4.5 22.0449 9.5 22.0449Z" stroke="white" stroke-width="1.5" stroke-linecap="round" stroke-linejoin="round"/>
<path d="M2.5 13.0452H6.26C7.02 13.0452 7.71 13.4752 8.05 14.1552L8.94 15.9452C9.5 17.0452 10.5 17.0452 10.74 17.0452H14.27C15.03 17.0452 15.72 16.6152 16.06 15.9352L16.95 14.1452C17.29 13.4652 17.98 13.0352 18.74 13.0352H22.48" stroke="white" stroke-width="1.5" stroke-linecap="round" stroke-linejoin="round"/>
</svg>
