<svg width="25" height="24" viewBox="0 0 25 24" fill="none" xmlns="http://www.w3.org/2000/svg">
<path d="M13.9805 10.1016V8.92578C13.9805 8.43359 13.7982 8.01432 13.4336 7.66797C13.0872 7.30339 12.668 7.12109 12.1758 7.12109C11.6836 7.12109 11.2552 7.30339 10.8906 7.66797C10.5443 8.01432 10.3711 8.43359 10.3711 8.92578V10.1016H13.9805ZM11.3555 14.9961C11.5924 15.2331 11.8659 15.3516 12.1758 15.3516C12.4857 15.3516 12.7591 15.2331 12.9961 14.9961C13.2331 14.7591 13.3516 14.4857 13.3516 14.1758C13.3516 13.8659 13.2331 13.5924 12.9961 13.3555C12.7591 13.1185 12.4857 13 12.1758 13C11.8659 13 11.5924 13.1185 11.3555 13.3555C11.1185 13.5924 11 13.8659 11 14.1758C11 14.4857 11.1185 14.7591 11.3555 14.9961ZM15.6758 10.1016C15.9857 10.1016 16.2591 10.2201 16.4961 10.457C16.7331 10.6758 16.8516 10.9401 16.8516 11.25V17.1016C16.8516 17.4115 16.7331 17.6849 16.4961 17.9219C16.2591 18.1406 15.9857 18.25 15.6758 18.25H8.67578C8.36589 18.25 8.09245 18.1406 7.85547 17.9219C7.61849 17.6849 7.5 17.4115 7.5 17.1016V11.25C7.5 10.9401 7.61849 10.6758 7.85547 10.457C8.09245 10.2201 8.36589 10.1016 8.67578 10.1016H9.25V8.92578C9.25 8.1237 9.53255 7.4401 10.0977 6.875C10.681 6.29167 11.3737 6 12.1758 6C12.9779 6 13.6615 6.29167 14.2266 6.875C14.8099 7.4401 15.1016 8.1237 15.1016 8.92578V10.1016H15.6758Z" fill="#273143"/>
</svg>
