<svg width="340" height="363" viewBox="0 0 340 363" fill="none" xmlns="http://www.w3.org/2000/svg">
<g clip-path="url(#clip0_45_5510)">
<path d="M219.62 212.309L80.8633 248.103C76.1565 249.312 71.1634 248.6 66.9794 246.126C62.7953 243.651 59.7621 239.615 58.545 234.902L16.5814 71.658C15.375 66.943 16.0849 61.9411 18.5553 57.7497C21.0258 53.5583 25.055 50.5197 29.759 49.3006L158.849 16L191.89 30.8174L232.798 189.952C234.004 194.667 233.294 199.668 230.824 203.86C228.353 208.051 224.324 211.09 219.62 212.309Z" fill="#F3F4F7"/>
<path d="M31.0745 54.4187C27.7246 55.2868 24.8553 57.4507 23.0961 60.4355C21.3368 63.4202 20.8313 66.9822 21.6904 70.3399L63.6541 233.584C64.5207 236.94 66.6808 239.814 69.6603 241.577C72.6398 243.339 76.1956 243.845 79.5474 242.985L218.304 207.191C221.654 206.322 224.523 204.159 226.282 201.174C228.042 198.189 228.547 194.627 227.688 191.269L187.415 34.601L158.378 21.5791L31.0745 54.4187Z" fill="white"/>
<path d="M191.537 31.6595L170.063 37.1991C168.495 37.6035 166.831 37.3675 165.437 36.543C164.043 35.7185 163.033 34.373 162.63 32.8025L158.545 16.914C158.527 16.8444 158.529 16.7712 158.551 16.7028C158.573 16.6343 158.613 16.5734 158.668 16.527C158.723 16.4806 158.79 16.4506 158.861 16.4404C158.932 16.4302 159.004 16.4403 159.07 16.4694L191.597 30.9401C191.669 30.9723 191.73 31.0263 191.77 31.0946C191.811 31.1628 191.829 31.242 191.822 31.321C191.816 31.4001 191.785 31.4752 191.734 31.5358C191.683 31.5965 191.614 31.6397 191.537 31.6595Z" fill="#F3F4F7"/>
<path d="M180.24 171.067L117.066 187.363C116.678 187.464 116.274 187.486 115.877 187.43C115.48 187.373 115.098 187.239 114.753 187.035C114.408 186.831 114.106 186.561 113.866 186.24C113.625 185.919 113.449 185.554 113.349 185.165C113.249 184.776 113.227 184.372 113.283 183.974C113.339 183.577 113.473 183.194 113.677 182.848C113.881 182.503 114.15 182.2 114.471 181.959C114.791 181.718 115.156 181.542 115.544 181.442L178.718 165.145C179.106 165.045 179.51 165.023 179.907 165.079C180.304 165.135 180.685 165.269 181.031 165.473C181.376 165.678 181.677 165.948 181.918 166.269C182.159 166.59 182.334 166.955 182.434 167.344C182.534 167.732 182.557 168.137 182.501 168.535C182.444 168.932 182.311 169.315 182.107 169.661C181.903 170.006 181.633 170.308 181.313 170.55C180.993 170.791 180.628 170.967 180.24 171.067Z" fill="#E4E6E9"/>
<path d="M195 177.914L119.634 197.356C118.85 197.558 118.019 197.44 117.322 197.028C116.625 196.615 116.12 195.943 115.918 195.158C115.716 194.372 115.834 193.539 116.245 192.841C116.657 192.142 117.328 191.637 118.112 191.434L193.478 171.993C194.261 171.792 195.092 171.91 195.789 172.322C196.485 172.735 196.99 173.407 197.192 174.192C197.393 174.977 197.276 175.81 196.865 176.508C196.454 177.206 195.783 177.711 195 177.914Z" fill="#E4E6E9"/>
<path d="M91.282 206.991C97.2394 206.991 102.069 202.153 102.069 196.185C102.069 190.217 97.2394 185.379 91.282 185.379C85.3246 185.379 80.4951 190.217 80.4951 196.185C80.4951 202.153 85.3246 206.991 91.282 206.991Z" fill="#E4E6E9"/>
<path d="M173.522 142.787L89.6212 164.423C87.1964 165.045 84.6242 164.678 82.4689 163.403C80.3136 162.128 78.7512 160.049 78.1245 157.621L60.5419 89.1971C59.9206 86.7681 60.2865 84.1914 61.5594 82.0323C62.8322 79.8732 64.908 78.3081 67.3314 77.6803L151.233 56.0448C153.657 55.4225 156.23 55.7891 158.385 57.0641C160.54 58.3392 162.103 60.4187 162.729 62.8463L180.312 131.27C180.933 133.699 180.567 136.276 179.294 138.435C178.022 140.594 175.946 142.159 173.522 142.787Z" fill="white"/>
<path d="M173.522 142.787L89.6212 164.423C87.1964 165.045 84.6242 164.678 82.4689 163.403C80.3136 162.128 78.7512 160.049 78.1245 157.621L60.5419 89.1971C59.9206 86.7681 60.2865 84.1914 61.5594 82.0323C62.8322 79.8732 64.908 78.3081 67.3314 77.6803L151.233 56.0448C153.657 55.4225 156.23 55.7891 158.385 57.0641C160.54 58.3392 162.103 60.4187 162.729 62.8463L180.312 131.27C180.933 133.699 180.567 136.276 179.294 138.435C178.022 140.594 175.946 142.159 173.522 142.787ZM67.6083 78.7578C65.4701 79.3118 63.6385 80.6928 62.5154 82.5978C61.3923 84.5029 61.0694 86.7765 61.6176 88.9197L79.2001 157.344C79.7531 159.486 81.1317 161.321 83.0335 162.446C84.9352 163.571 87.2048 163.894 89.3443 163.345L173.246 141.71C175.384 141.156 177.215 139.775 178.339 137.87C179.462 135.965 179.785 133.691 179.236 131.548L161.654 63.1236C161.101 60.9816 159.722 59.1468 157.82 58.0218C155.919 56.8967 153.649 56.5733 151.51 57.1224L67.6083 78.7578Z" fill="#E4E6E9"/>
<path d="M146.977 79.0517L104.633 89.9708C104.262 90.0743 103.867 90.0332 103.526 89.8557C103.185 89.6783 102.924 89.3777 102.795 89.0147C102.736 88.8251 102.715 88.6253 102.735 88.4275C102.755 88.2297 102.815 88.0381 102.911 87.8642C103.007 87.6904 103.138 87.538 103.295 87.4164C103.452 87.2948 103.632 87.2065 103.824 87.157L146.928 76.042C148.669 76.9258 148.211 78.7333 146.977 79.0517Z" fill="#F3F4F7"/>
<path d="M148.889 86.4921L106.545 97.4112C106.175 97.5148 105.779 97.4736 105.438 97.2962C105.097 97.1187 104.836 96.8181 104.707 96.4552C104.648 96.2656 104.627 96.0658 104.647 95.868C104.667 95.6702 104.727 95.4785 104.823 95.3046C104.919 95.1308 105.05 94.9784 105.207 94.8568C105.364 94.7352 105.544 94.647 105.736 94.5974L148.84 83.4824C150.581 84.3662 150.123 86.1737 148.889 86.4921Z" fill="#F3F4F7"/>
<path d="M98.4793 104.008L85.5564 107.34C85.1343 107.449 84.6866 107.385 84.3114 107.163C83.9363 106.941 83.6643 106.579 83.5553 106.157L79.6297 90.8797C79.5215 90.4569 79.5851 90.0084 79.8067 89.6326C80.0282 89.2568 80.3896 88.9844 80.8114 88.8751L93.7344 85.5427C94.1564 85.4345 94.6041 85.4983 94.9792 85.7203C95.3543 85.9422 95.6263 86.3041 95.7355 86.7266L99.6611 102.003C99.7693 102.426 99.7056 102.875 99.4841 103.251C99.2625 103.626 98.9012 103.899 98.4793 104.008Z" fill="#E4E6E9"/>
<path d="M152.68 101.758L88.0555 118.422C87.6853 118.526 87.2897 118.485 86.9486 118.307C86.6075 118.13 86.3464 117.829 86.2181 117.466C86.1584 117.277 86.1379 117.077 86.1578 116.879C86.1777 116.681 86.2376 116.49 86.3339 116.316C86.4302 116.142 86.5608 115.99 86.7178 115.868C86.8748 115.746 87.0549 115.658 87.2471 115.609L152.632 98.748C154.373 99.6318 153.915 101.44 152.68 101.758Z" fill="#F3F4F7"/>
<path d="M154.592 109.201L89.9676 125.865C89.5974 125.969 89.2018 125.928 88.8607 125.75C88.5197 125.573 88.2586 125.272 88.1302 124.909C88.0705 124.72 88.05 124.52 88.0699 124.322C88.0898 124.124 88.1497 123.933 88.246 123.759C88.3423 123.585 88.4729 123.433 88.6299 123.311C88.7869 123.189 88.967 123.101 89.1592 123.051L154.544 106.191C156.285 107.075 155.827 108.882 154.592 109.201Z" fill="#F3F4F7"/>
<path d="M156.504 116.638L91.8797 133.303C91.5095 133.406 91.1139 133.365 90.7728 133.188C90.4318 133.01 90.1707 132.71 90.0423 132.347C89.9826 132.157 89.9621 131.957 89.982 131.76C90.0019 131.562 90.0618 131.37 90.1581 131.196C90.2544 131.022 90.385 130.87 90.542 130.748C90.699 130.627 90.8791 130.539 91.0713 130.489L156.456 113.628C158.197 114.512 157.739 116.32 156.504 116.638Z" fill="#F3F4F7"/>
<path d="M158.416 124.081L93.7919 140.745C93.4217 140.849 93.026 140.808 92.685 140.63C92.3439 140.453 92.0828 140.152 91.9545 139.789C91.8947 139.6 91.8742 139.4 91.8941 139.202C91.914 139.004 91.9739 138.812 92.0702 138.639C92.1665 138.465 92.2971 138.312 92.4541 138.191C92.6112 138.069 92.7913 137.981 92.9835 137.931L158.368 121.071C160.109 121.955 159.651 123.762 158.416 124.081Z" fill="#F3F4F7"/>
<path d="M160.328 131.519L95.703 148.183C95.3328 148.287 94.9372 148.246 94.5961 148.068C94.255 147.891 93.9939 147.59 93.8656 147.227C93.8058 147.038 93.7853 146.838 93.8052 146.64C93.8251 146.442 93.885 146.25 93.9813 146.077C94.0776 145.903 94.2082 145.75 94.3653 145.629C94.5223 145.507 94.7024 145.419 94.8946 145.369L160.279 128.509C162.02 129.393 161.562 131.2 160.328 131.519Z" fill="#F3F4F7"/>
<path d="M92.0779 199.973C91.843 200.034 91.5947 200.017 91.3703 199.924L91.3565 199.918L88.4179 198.67C88.2815 198.613 88.1578 198.528 88.054 198.423C87.9501 198.317 87.8681 198.192 87.8126 198.054C87.7571 197.917 87.7292 197.769 87.7305 197.621C87.7318 197.473 87.7623 197.326 87.8203 197.19C87.8782 197.053 87.9625 196.929 88.0682 196.825C88.174 196.722 88.2991 196.64 88.4365 196.584C88.5739 196.529 88.7208 196.501 88.8689 196.503C89.017 196.504 89.1633 196.535 89.2995 196.593L91.2036 197.405L93.6988 191.525C93.7567 191.388 93.8408 191.265 93.9464 191.161C94.0519 191.057 94.1768 190.975 94.3139 190.92C94.4511 190.864 94.5978 190.837 94.7457 190.838C94.8935 190.839 95.0397 190.87 95.1758 190.928L95.1612 190.966L95.1768 190.928C95.4515 191.045 95.6684 191.267 95.7801 191.544C95.8917 191.822 95.8889 192.132 95.7723 192.408L92.8367 199.321C92.7687 199.481 92.6649 199.622 92.5334 199.735C92.4019 199.848 92.2463 199.929 92.0786 199.971L92.0779 199.973Z" fill="white"/>
<path d="M272.841 274.517H129.557C124.698 274.512 120.04 272.576 116.604 269.134C113.169 265.692 111.236 261.026 111.23 256.158V87.5881C111.236 82.7207 113.169 78.0541 116.604 74.6123C120.04 71.1705 124.698 69.2345 129.557 69.229H262.859L291.168 91.8324V256.158C291.162 261.026 289.23 265.692 285.794 269.134C282.358 272.576 277.7 274.512 272.841 274.517Z" fill="#E4E6E9"/>
<path d="M129.558 74.5142C126.098 74.5181 122.78 75.8967 120.334 78.3477C117.887 80.7987 116.511 84.1219 116.507 87.5881V256.158C116.511 259.624 117.887 262.947 120.334 265.398C122.78 267.849 126.098 269.228 129.558 269.232H272.841C276.301 269.228 279.619 267.849 282.065 265.398C284.512 262.947 285.888 259.624 285.892 256.158V94.3785L261.014 74.5142H129.558Z" fill="white"/>
<path d="M244.972 123.53H179.737C178.928 123.53 178.152 123.207 177.579 122.634C177.007 122.061 176.686 121.283 176.686 120.472C176.686 119.661 177.007 118.884 177.579 118.31C178.152 117.737 178.928 117.415 179.737 117.415H244.972C245.782 117.415 246.558 117.737 247.13 118.31C247.703 118.884 248.024 119.661 248.024 120.472C248.024 121.283 247.703 122.061 247.13 122.634C246.558 123.207 245.782 123.53 244.972 123.53Z" fill="#5991C9" fill-opacity="0.9"/>
<path d="M257.561 133.848H179.737C178.929 133.847 178.153 133.524 177.582 132.951C177.01 132.378 176.689 131.601 176.689 130.791C176.689 129.981 177.01 129.204 177.582 128.63C178.153 128.057 178.929 127.734 179.737 127.733H257.561C257.963 127.733 258.36 127.812 258.731 127.965C259.101 128.118 259.438 128.343 259.722 128.627C260.006 128.911 260.231 129.249 260.385 129.62C260.538 129.991 260.617 130.389 260.617 130.791C260.617 131.193 260.538 131.59 260.385 131.962C260.231 132.333 260.006 132.67 259.722 132.954C259.438 133.238 259.101 133.463 258.731 133.616C258.36 133.77 257.963 133.849 257.561 133.848Z" fill="#5991C9" fill-opacity="0.9"/>
<path d="M244.973 163.655H179.74C178.931 163.655 178.155 163.977 177.582 164.55C177.01 165.123 176.688 165.901 176.688 166.712C176.688 167.523 177.01 168.3 177.582 168.874C178.155 169.447 178.931 169.769 179.74 169.769H244.973C245.782 169.769 246.559 169.447 247.131 168.874C247.703 168.3 248.025 167.523 248.025 166.712C248.025 165.901 247.703 165.123 247.131 164.55C246.559 163.977 245.782 163.655 244.973 163.655Z" fill="#E4E6E9"/>
<path d="M257.563 173.975H179.74C178.931 173.975 178.155 174.297 177.582 174.871C177.01 175.444 176.688 176.221 176.688 177.032C176.688 177.843 177.01 178.621 177.582 179.194C178.155 179.767 178.931 180.089 179.74 180.089H257.563C258.372 180.089 259.149 179.767 259.721 179.194C260.293 178.621 260.615 177.843 260.615 177.032C260.615 176.221 260.293 175.444 259.721 174.871C259.149 174.297 258.372 173.975 257.563 173.975Z" fill="#E4E6E9"/>
<path d="M244.972 216.013H179.737C178.928 216.013 178.152 215.69 177.579 215.117C177.007 214.544 176.686 213.766 176.686 212.955C176.686 212.144 177.007 211.367 177.579 210.793C178.152 210.22 178.928 209.898 179.737 209.898H244.972C245.782 209.898 246.558 210.22 247.13 210.793C247.703 211.367 248.024 212.144 248.024 212.955C248.024 213.766 247.703 214.544 247.13 215.117C246.558 215.69 245.782 216.013 244.972 216.013Z" fill="#E4E6E9"/>
<path d="M257.561 226.331H179.737C178.929 226.33 178.153 226.007 177.582 225.434C177.01 224.861 176.689 224.084 176.689 223.274C176.689 222.463 177.01 221.686 177.582 221.113C178.153 220.54 178.929 220.217 179.737 220.216H257.561C257.963 220.216 258.36 220.294 258.731 220.448C259.101 220.601 259.438 220.826 259.722 221.11C260.006 221.394 260.231 221.731 260.385 222.103C260.538 222.474 260.617 222.872 260.617 223.274C260.617 223.675 260.538 224.073 260.385 224.445C260.231 224.816 260.006 225.153 259.722 225.437C259.438 225.721 259.101 225.946 258.731 226.099C258.36 226.253 257.963 226.331 257.561 226.331Z" fill="#E4E6E9"/>
<path d="M152.572 136.437C158.529 136.437 163.359 131.599 163.359 125.631C163.359 119.664 158.529 114.826 152.572 114.826C146.615 114.826 141.785 119.664 141.785 125.631C141.785 131.599 146.615 136.437 152.572 136.437Z" fill="#5991C9" fill-opacity="0.9"/>
<path d="M151.503 129.753C151.26 129.754 151.024 129.675 150.83 129.529L150.818 129.52L148.283 127.578C148.165 127.488 148.066 127.375 147.992 127.247C147.918 127.119 147.869 126.977 147.85 126.83C147.83 126.683 147.84 126.533 147.878 126.39C147.916 126.246 147.982 126.112 148.072 125.994C148.162 125.876 148.275 125.777 148.403 125.703C148.532 125.629 148.673 125.581 148.82 125.562C148.967 125.542 149.116 125.552 149.259 125.591C149.402 125.629 149.536 125.696 149.654 125.786L151.296 127.048L155.176 121.977C155.266 121.859 155.378 121.761 155.506 121.687C155.634 121.612 155.776 121.564 155.922 121.545C156.069 121.525 156.218 121.535 156.361 121.573C156.503 121.612 156.637 121.678 156.755 121.768L156.731 121.802L156.756 121.768C156.993 121.951 157.147 122.219 157.186 122.516C157.226 122.813 157.146 123.113 156.964 123.35L152.4 129.312C152.295 129.449 152.159 129.561 152.003 129.637C151.848 129.713 151.677 129.753 151.504 129.752L151.503 129.753Z" fill="white"/>
<path d="M164.468 171.872C164.469 173.291 164.19 174.696 163.648 176.008C163.107 177.319 162.312 178.511 161.311 179.515C160.309 180.518 159.12 181.315 157.811 181.858C156.502 182.401 155.1 182.681 153.683 182.681C153.59 182.683 153.497 182.68 153.405 182.67C151.284 182.616 149.226 181.936 147.489 180.716C145.752 179.495 144.413 177.789 143.639 175.81C142.865 173.831 142.691 171.668 143.138 169.59C143.586 167.512 144.635 165.613 146.154 164.13C147.674 162.647 149.596 161.645 151.681 161.251C153.766 160.857 155.921 161.087 157.875 161.914C159.83 162.74 161.498 164.125 162.671 165.897C163.844 167.668 164.469 169.746 164.468 171.872Z" fill="#E4E6E9"/>
<path d="M152.572 228.92C158.529 228.92 163.359 224.082 163.359 218.114C163.359 212.147 158.529 207.309 152.572 207.309C146.615 207.309 141.785 212.147 141.785 218.114C141.785 224.082 146.615 228.92 152.572 228.92Z" fill="#E4E6E9"/>
<path d="M290.617 92.5599H268.442C266.823 92.5599 265.27 91.9157 264.126 90.769C262.981 89.6223 262.338 88.067 262.338 86.4453V70.0384C262.338 69.9666 262.358 69.8962 262.396 69.8354C262.434 69.7745 262.489 69.7256 262.553 69.6944C262.618 69.6631 262.69 69.6507 262.761 69.6586C262.832 69.6664 262.9 69.6943 262.956 69.7389L290.854 91.8782C290.916 91.9275 290.961 91.9949 290.983 92.071C291.005 92.1472 291.003 92.2284 290.977 92.3034C290.951 92.3783 290.902 92.4433 290.838 92.4892C290.773 92.5352 290.696 92.5599 290.617 92.5599Z" fill="#E4E6E9"/>
<path fill-rule="evenodd" clip-rule="evenodd" d="M287.759 258.532C291.949 254.387 294.678 248.946 295.466 243.041C296.403 236.024 294.522 228.924 290.236 223.301C287.034 219.109 282.661 215.963 277.671 214.262C272.681 212.561 267.297 212.38 262.2 213.743C257.104 215.105 252.523 217.95 249.038 221.917C245.553 225.884 243.32 230.796 242.622 236.03C241.923 241.265 242.79 246.588 245.113 251.325C247.436 256.063 251.111 260.003 255.673 262.647C260.235 265.291 265.478 266.52 270.741 266.179C274.888 265.91 278.9 264.676 282.465 262.594L308.226 296.317C308.762 297.019 309.556 297.479 310.432 297.596C311.308 297.712 312.195 297.475 312.898 296.937C313.6 296.398 314.06 295.603 314.177 294.726C314.294 293.848 314.059 292.961 313.522 292.258L287.759 258.532ZM281.205 255.422C283.276 253.832 285.028 251.844 286.349 249.562C288.333 246.134 289.258 242.195 289.008 238.243C288.757 234.291 287.341 230.503 284.939 227.359C281.715 223.149 276.954 220.393 271.698 219.696C266.443 218.998 261.124 220.417 256.908 223.641C253.765 226.049 251.405 229.336 250.127 233.085C248.848 236.834 248.708 240.877 249.724 244.703C250.74 248.53 252.867 251.967 255.835 254.58C258.804 257.194 262.48 258.866 266.401 259.386C270.321 259.907 274.309 259.251 277.859 257.502C279.036 256.922 280.147 256.231 281.18 255.442C281.184 255.438 281.188 255.435 281.193 255.432C281.197 255.428 281.201 255.425 281.205 255.422Z" fill="#065AAE" fill-opacity="0.9"/>
</g>
<path d="M74.3395 322.091V341H71.7173L62.1058 327.132H61.9304V341H59.0774V322.091H61.718L71.3388 335.977H71.5142V322.091H74.3395ZM84.2534 341.286C82.9238 341.286 81.7636 340.982 80.7725 340.372C79.7815 339.763 79.0121 338.91 78.4643 337.815C77.9165 336.719 77.6426 335.439 77.6426 333.974C77.6426 332.503 77.9165 331.216 78.4643 330.114C79.0121 329.013 79.7815 328.157 80.7725 327.548C81.7636 326.938 82.9238 326.634 84.2534 326.634C85.5829 326.634 86.7432 326.938 87.7342 327.548C88.7252 328.157 89.4946 329.013 90.0424 330.114C90.5903 331.216 90.8642 332.503 90.8642 333.974C90.8642 335.439 90.5903 336.719 90.0424 337.815C89.4946 338.91 88.7252 339.763 87.7342 340.372C86.7432 340.982 85.5829 341.286 84.2534 341.286ZM84.2626 338.969C85.1243 338.969 85.8384 338.741 86.4047 338.286C86.9709 337.83 87.3895 337.224 87.6603 336.467C87.9373 335.71 88.0758 334.875 88.0758 333.964C88.0758 333.06 87.9373 332.229 87.6603 331.472C87.3895 330.708 86.9709 330.096 86.4047 329.634C85.8384 329.173 85.1243 328.942 84.2626 328.942C83.3947 328.942 82.6745 329.173 82.1021 329.634C81.5358 330.096 81.1142 330.708 80.8372 331.472C80.5663 332.229 80.4309 333.06 80.4309 333.964C80.4309 334.875 80.5663 335.71 80.8372 336.467C81.1142 337.224 81.5358 337.83 82.1021 338.286C82.6745 338.741 83.3947 338.969 84.2626 338.969ZM101.048 341V322.091H107.788C109.253 322.091 110.469 322.343 111.435 322.848C112.408 323.353 113.134 324.051 113.614 324.944C114.094 325.83 114.334 326.855 114.334 328.018C114.334 329.176 114.091 330.194 113.605 331.075C113.125 331.949 112.398 332.629 111.426 333.115C110.46 333.601 109.244 333.844 107.779 333.844H102.673V331.388H107.52C108.444 331.388 109.195 331.256 109.773 330.991C110.358 330.727 110.786 330.342 111.057 329.837C111.327 329.333 111.463 328.726 111.463 328.018C111.463 327.304 111.324 326.686 111.047 326.163C110.777 325.639 110.349 325.239 109.764 324.962C109.185 324.679 108.425 324.538 107.483 324.538H103.901V341H101.048ZM110.383 332.469L115.055 341H111.805L107.225 332.469H110.383ZM123.519 341.286C122.122 341.286 120.918 340.988 119.909 340.391C118.905 339.787 118.13 338.941 117.582 337.852C117.04 336.756 116.77 335.473 116.77 334.001C116.77 332.549 117.04 331.268 117.582 330.161C118.13 329.053 118.893 328.188 119.872 327.566C120.857 326.944 122.008 326.634 123.325 326.634C124.125 326.634 124.901 326.766 125.652 327.031C126.403 327.295 127.077 327.711 127.674 328.277C128.271 328.843 128.742 329.579 129.086 330.484C129.431 331.382 129.603 332.475 129.603 333.761V334.74H118.33V332.672H126.898C126.898 331.946 126.75 331.302 126.455 330.742C126.159 330.176 125.744 329.73 125.208 329.403C124.679 329.077 124.057 328.914 123.343 328.914C122.568 328.914 121.891 329.105 121.312 329.487C120.74 329.862 120.297 330.354 119.983 330.964C119.675 331.567 119.521 332.223 119.521 332.93V334.546C119.521 335.494 119.687 336.3 120.02 336.965C120.358 337.63 120.829 338.138 121.432 338.489C122.035 338.833 122.74 339.006 123.547 339.006C124.07 339.006 124.547 338.932 124.978 338.784C125.408 338.63 125.781 338.402 126.095 338.101C126.409 337.799 126.649 337.427 126.815 336.984L129.428 337.455C129.219 338.224 128.843 338.898 128.301 339.477C127.766 340.049 127.092 340.495 126.279 340.815C125.473 341.129 124.553 341.286 123.519 341.286ZM143.294 330.281L140.791 330.724C140.687 330.404 140.521 330.099 140.293 329.81C140.071 329.52 139.77 329.283 139.388 329.099C139.006 328.914 138.529 328.822 137.957 328.822C137.175 328.822 136.523 328.997 135.999 329.348C135.476 329.693 135.215 330.139 135.215 330.687C135.215 331.161 135.39 331.542 135.741 331.832C136.092 332.121 136.658 332.358 137.44 332.543L139.693 333.06C140.998 333.361 141.97 333.826 142.61 334.454C143.25 335.082 143.57 335.897 143.57 336.901C143.57 337.75 143.324 338.507 142.832 339.172C142.346 339.83 141.665 340.348 140.791 340.723C139.923 341.098 138.917 341.286 137.772 341.286C136.184 341.286 134.888 340.948 133.885 340.271C132.882 339.587 132.266 338.618 132.039 337.362L134.707 336.956C134.873 337.652 135.215 338.178 135.732 338.535C136.249 338.886 136.923 339.061 137.754 339.061C138.659 339.061 139.382 338.873 139.923 338.498C140.465 338.116 140.736 337.652 140.736 337.104C140.736 336.661 140.57 336.288 140.237 335.987C139.911 335.685 139.41 335.457 138.732 335.303L136.332 334.777C135.008 334.475 134.03 333.995 133.396 333.337C132.768 332.678 132.454 331.844 132.454 330.835C132.454 329.997 132.688 329.265 133.156 328.637C133.624 328.009 134.27 327.52 135.095 327.169C135.919 326.812 136.864 326.634 137.929 326.634C139.462 326.634 140.668 326.966 141.548 327.631C142.429 328.289 143.01 329.173 143.294 330.281ZM155.589 335.119V326.818H158.359V341H155.645V338.544H155.497C155.171 339.301 154.648 339.932 153.928 340.437C153.214 340.935 152.324 341.185 151.259 341.185C150.348 341.185 149.542 340.985 148.84 340.585C148.145 340.178 147.597 339.578 147.197 338.784C146.803 337.99 146.606 337.008 146.606 335.839V326.818H149.366V335.506C149.366 336.473 149.634 337.242 150.17 337.815C150.705 338.387 151.401 338.673 152.256 338.673C152.773 338.673 153.287 338.544 153.798 338.286C154.315 338.027 154.743 337.636 155.082 337.113C155.426 336.59 155.596 335.925 155.589 335.119ZM164.829 322.091V341H162.069V322.091H164.829ZM175.163 326.818V329.034H167.417V326.818H175.163ZM169.494 323.42H172.255V336.836C172.255 337.371 172.335 337.775 172.495 338.045C172.655 338.31 172.861 338.492 173.114 338.59C173.372 338.683 173.652 338.729 173.954 338.729C174.175 338.729 174.369 338.713 174.536 338.683C174.702 338.652 174.831 338.627 174.923 338.609L175.422 340.889C175.262 340.951 175.034 341.012 174.739 341.074C174.443 341.142 174.074 341.179 173.631 341.185C172.904 341.197 172.227 341.068 171.599 340.797C170.972 340.526 170.464 340.107 170.076 339.541C169.688 338.975 169.494 338.264 169.494 337.408V323.42ZM185.32 341V322.091H197.045V324.547H188.173V330.308H196.205V332.755H188.173V341H185.32ZM205.265 341.286C203.936 341.286 202.775 340.982 201.784 340.372C200.793 339.763 200.024 338.91 199.476 337.815C198.928 336.719 198.654 335.439 198.654 333.974C198.654 332.503 198.928 331.216 199.476 330.114C200.024 329.013 200.793 328.157 201.784 327.548C202.775 326.938 203.936 326.634 205.265 326.634C206.595 326.634 207.755 326.938 208.746 327.548C209.737 328.157 210.506 329.013 211.054 330.114C211.602 331.216 211.876 332.503 211.876 333.974C211.876 335.439 211.602 336.719 211.054 337.815C210.506 338.91 209.737 339.763 208.746 340.372C207.755 340.982 206.595 341.286 205.265 341.286ZM205.274 338.969C206.136 338.969 206.85 338.741 207.416 338.286C207.983 337.83 208.401 337.224 208.672 336.467C208.949 335.71 209.088 334.875 209.088 333.964C209.088 333.06 208.949 332.229 208.672 331.472C208.401 330.708 207.983 330.096 207.416 329.634C206.85 329.173 206.136 328.942 205.274 328.942C204.406 328.942 203.686 329.173 203.114 329.634C202.548 330.096 202.126 330.708 201.849 331.472C201.578 332.229 201.443 333.06 201.443 333.964C201.443 334.875 201.578 335.71 201.849 336.467C202.126 337.224 202.548 337.83 203.114 338.286C203.686 338.741 204.406 338.969 205.274 338.969ZM223.941 335.119V326.818H226.711V341H223.996V338.544H223.849C223.522 339.301 222.999 339.932 222.279 340.437C221.565 340.935 220.676 341.185 219.611 341.185C218.7 341.185 217.893 340.985 217.192 340.585C216.496 340.178 215.948 339.578 215.548 338.784C215.154 337.99 214.957 337.008 214.957 335.839V326.818H217.718V335.506C217.718 336.473 217.986 337.242 218.521 337.815C219.057 338.387 219.752 338.673 220.608 338.673C221.125 338.673 221.639 338.544 222.15 338.286C222.667 338.027 223.095 337.636 223.433 337.113C223.778 336.59 223.947 335.925 223.941 335.119ZM233.181 332.58V341H230.42V326.818H233.07V329.126H233.246C233.572 328.375 234.083 327.772 234.778 327.317C235.48 326.861 236.363 326.634 237.428 326.634C238.394 326.634 239.241 326.837 239.967 327.243C240.693 327.643 241.257 328.24 241.657 329.034C242.057 329.828 242.257 330.81 242.257 331.979V341H239.496V332.312C239.496 331.284 239.229 330.481 238.693 329.902C238.157 329.317 237.422 329.025 236.486 329.025C235.846 329.025 235.277 329.163 234.778 329.44C234.286 329.717 233.895 330.124 233.606 330.659C233.323 331.188 233.181 331.829 233.181 332.58ZM251.268 341.277C250.123 341.277 249.102 340.985 248.203 340.4C247.31 339.809 246.609 338.969 246.098 337.879C245.593 336.784 245.341 335.469 245.341 333.937C245.341 332.404 245.596 331.093 246.107 330.004C246.624 328.914 247.332 328.08 248.231 327.501C249.129 326.923 250.148 326.634 251.287 326.634C252.167 326.634 252.875 326.781 253.41 327.077C253.952 327.366 254.371 327.705 254.666 328.092C254.968 328.48 255.202 328.822 255.368 329.117H255.534V322.091H258.295V341H255.599V338.793H255.368C255.202 339.095 254.961 339.44 254.648 339.827C254.34 340.215 253.915 340.554 253.373 340.843C252.832 341.132 252.13 341.277 251.268 341.277ZM251.878 338.923C252.672 338.923 253.343 338.713 253.89 338.295C254.444 337.87 254.863 337.282 255.146 336.531C255.435 335.78 255.58 334.906 255.58 333.909C255.58 332.924 255.439 332.062 255.155 331.324C254.872 330.585 254.457 330.01 253.909 329.597C253.361 329.185 252.684 328.979 251.878 328.979C251.047 328.979 250.354 329.194 249.8 329.625C249.246 330.056 248.828 330.644 248.545 331.388C248.268 332.133 248.129 332.973 248.129 333.909C248.129 334.857 248.271 335.71 248.554 336.467C248.837 337.224 249.256 337.824 249.809 338.267C250.37 338.704 251.059 338.923 251.878 338.923ZM264.054 341.175C263.549 341.175 263.115 340.997 262.752 340.64C262.389 340.277 262.207 339.84 262.207 339.329C262.207 338.824 262.389 338.393 262.752 338.036C263.115 337.673 263.549 337.491 264.054 337.491C264.558 337.491 264.992 337.673 265.355 338.036C265.719 338.393 265.9 338.824 265.9 339.329C265.9 339.667 265.814 339.978 265.642 340.261C265.475 340.538 265.254 340.76 264.977 340.926C264.7 341.092 264.392 341.175 264.054 341.175ZM271.417 341.175C270.912 341.175 270.478 340.997 270.115 340.64C269.752 340.277 269.57 339.84 269.57 339.329C269.57 338.824 269.752 338.393 270.115 338.036C270.478 337.673 270.912 337.491 271.417 337.491C271.922 337.491 272.356 337.673 272.719 338.036C273.082 338.393 273.263 338.824 273.263 339.329C273.263 339.667 273.177 339.978 273.005 340.261C272.839 340.538 272.617 340.76 272.34 340.926C272.063 341.092 271.755 341.175 271.417 341.175ZM280.315 322.091L280.075 335.562H277.518L277.278 322.091H280.315ZM278.801 341.175C278.29 341.175 277.853 340.997 277.49 340.64C277.127 340.277 276.948 339.84 276.954 339.329C276.948 338.824 277.127 338.393 277.49 338.036C277.853 337.673 278.29 337.491 278.801 337.491C279.3 337.491 279.73 337.673 280.094 338.036C280.457 338.393 280.641 338.824 280.648 339.329C280.641 339.667 280.552 339.978 280.38 340.261C280.214 340.538 279.992 340.76 279.715 340.926C279.438 341.092 279.133 341.175 278.801 341.175Z" fill="#777777"/>
<defs>
<clipPath id="clip0_45_5510">
<rect width="308" height="292" fill="white" transform="translate(16 16)"/>
</clipPath>
</defs>
</svg>
