<svg width="400" height="300" viewBox="0 0 400 300" fill="none" xmlns="http://www.w3.org/2000/svg">
<rect width="400" height="300" fill="white"/>
<g clip-path="url(#clip0_7651_30032)">
<path d="M370.05 157.12C384.5 67.7504 267.56 31.2704 208.23 48.1604C184.71 54.8604 179.3 70.5204 153.19 64.2504C134.25 59.7304 144.29 31.1504 97.8503 31.1504C51.4103 31.1504 31.4803 69.8104 29.0903 107.35C26.5803 146.31 39.5703 170.44 81.0403 186.18C98.9603 192.99 115.42 186.47 130.93 190.92C149.18 196.15 157.99 205.01 166.26 215.25C186.52 240.32 216.06 256.43 248.22 258.51C309.71 262.49 360.07 218.85 370.06 157.12H370.05Z" fill="#EBEAF3"/>
<path d="M355.17 255.35H329.48V255.51H355.17V255.35Z" fill="#EBEBEB"/>
<path d="M263.05 257.52H256.3V257.68H263.05V257.52Z" fill="#EBEBEB"/>
<path d="M328.71 248.211H313.81V248.371H328.71V248.211Z" fill="#EBEBEB"/>
<path d="M80.28 249.449H46.75V249.609H80.28V249.449Z" fill="#EBEBEB"/>
<path d="M92.0697 249.449H87.1797V249.609H92.0697V249.449Z" fill="#EBEBEB"/>
<path d="M180.78 252.789H108.06V252.949H180.78V252.789Z" fill="#EBEBEB"/>
<path d="M394.06 242.859H6V243.019H394.06V242.859Z" fill="#EBEBEB"/>
<path d="M173.1 25C171.16 25 169.61 26.55 169.61 28.49V34.54H176.6V28.49C176.6 26.55 175.05 25 173.11 25H173.1ZM173.1 30.12C172.48 30.12 172.01 29.65 172.01 29.03C172.01 28.41 172.48 27.94 173.1 27.94C173.72 27.94 174.19 28.41 174.19 29.03C174.19 29.65 173.65 30.12 173.1 30.12Z" fill="#E0E0E0"/>
<path d="M316.68 25C314.74 25 313.19 26.55 313.19 28.49V34.54H320.18V28.49C320.18 26.55 318.63 25 316.69 25H316.68ZM316.68 30.12C316.06 30.12 315.59 29.65 315.59 29.03C315.59 28.41 316.06 27.94 316.68 27.94C317.3 27.94 317.77 28.41 317.77 29.03C317.77 29.65 317.23 30.12 316.68 30.12Z" fill="#E0E0E0"/>
<path d="M336.4 32.2207H153.31V153.061H336.4V32.2207Z" fill="#EBEBEB"/>
<path d="M331.35 38.0195H158.35V147.25H331.35V38.0195Z" fill="#F5F5F5"/>
<path d="M339.8 149.039H149.89V158.239H339.8V149.039Z" fill="#F0F0F0"/>
<path d="M114.96 96.5605H81.9102C77.4919 96.5605 73.9102 100.142 73.9102 104.561V145.061C73.9102 149.479 77.4919 153.061 81.9101 153.061H114.96C119.378 153.061 122.96 149.479 122.96 145.061V104.561C122.96 100.142 119.378 96.5605 114.96 96.5605Z" fill="#EBEBEB"/>
<path d="M196.3 274.909C279.413 274.909 346.79 270.983 346.79 266.139C346.79 261.296 279.413 257.369 196.3 257.369C113.186 257.369 45.8096 261.296 45.8096 266.139C45.8096 270.983 113.186 274.909 196.3 274.909Z" fill="#F5F5F5"/>
<path d="M188.77 43.0801H217.56C219.89 43.0801 221.83 45.3301 221.83 48.1201V84.7501C221.83 87.5401 219.97 89.7901 217.56 89.7901H188.77C186.44 89.7901 184.5 87.5401 184.5 84.7501V48.1301C184.58 45.3401 186.44 43.0901 188.77 43.0901V43.0801Z" fill="white"/>
<path d="M214.46 75.6797H192.81V77.3097H214.46V75.6797Z" fill="#867FB6"/>
<path d="M217.18 79.9492H189.94V81.5792H217.18V79.9492Z" fill="#867FB6"/>
<path d="M213.61 61.3191C213.61 63.0291 213.14 64.6591 212.29 66.1291C211.44 67.5991 210.19 68.8491 208.72 69.6991C207.25 70.5491 205.54 71.0191 203.75 71.0991C202.04 71.0991 200.26 70.7091 198.71 69.9391C197.16 69.1691 195.84 67.9191 194.91 66.4491C193.98 64.9791 193.44 63.3491 193.44 61.5591C193.36 59.8491 193.83 58.1491 194.68 56.6691C195.53 55.1991 196.78 53.8791 198.33 53.0191C199.88 52.1691 201.59 51.6991 203.37 51.6191C205.16 51.6191 206.94 52.0091 208.49 52.8591C210.04 53.7091 211.36 54.9591 212.22 56.4291C213.15 57.8991 213.62 59.6091 213.62 61.3191H213.61Z" fill="#867FB6"/>
<path d="M203.521 60.9283C204.991 60.9283 206.241 59.6883 206.241 58.2083C206.241 56.7283 205.001 55.4883 203.521 55.4883C202.041 55.4883 200.801 56.7283 200.801 58.2083C200.801 59.6883 202.041 60.9283 203.521 60.9283Z" fill="white"/>
<path d="M203.521 62.3301C199.411 62.3301 198.091 65.0501 198.091 65.0501V66.4501H208.961V65.0501C208.961 65.0501 207.641 62.3301 203.531 62.3301H203.521Z" fill="white"/>
<path d="M235.88 43.0801H264.67C267 43.0801 268.94 45.3301 268.94 48.1201V84.7501C268.94 87.5401 267.08 89.7901 264.67 89.7901H235.88C233.55 89.7901 231.61 87.5401 231.61 84.7501V48.1301C231.69 45.3401 233.55 43.0901 235.88 43.0901V43.0801Z" fill="white"/>
<path d="M261.57 75.6797H239.92V77.3097H261.57V75.6797Z" fill="#867FB6"/>
<path d="M264.291 79.9492H237.051V81.5792H264.291V79.9492Z" fill="#867FB6"/>
<path d="M260.721 61.3191C260.721 63.0291 260.251 64.6591 259.401 66.1291C258.551 67.5991 257.301 68.8491 255.831 69.6991C254.361 70.5491 252.651 71.0191 250.861 71.0991C249.151 71.0991 247.371 70.7091 245.821 69.9391C244.271 69.1691 242.951 67.9191 242.021 66.4491C241.091 64.9791 240.551 63.3491 240.551 61.5591C240.471 59.8491 240.941 58.1491 241.791 56.6691C242.641 55.1991 243.891 53.8791 245.441 53.0191C246.991 52.1691 248.701 51.6991 250.481 51.6191C252.271 51.6191 254.051 52.0091 255.601 52.8591C257.151 53.7091 258.471 54.9591 259.331 56.4291C260.261 57.8991 260.731 59.6091 260.731 61.3191H260.721Z" fill="#867FB6"/>
<path d="M250.631 60.9283C252.101 60.9283 253.351 59.6883 253.351 58.2083C253.351 56.7283 252.111 55.4883 250.631 55.4883C249.151 55.4883 247.911 56.7283 247.911 58.2083C247.911 59.6883 249.151 60.9283 250.631 60.9283Z" fill="white"/>
<path d="M250.631 62.3301C246.521 62.3301 245.201 65.0501 245.201 65.0501V66.4501H256.071V65.0501C256.071 65.0501 254.751 62.3301 250.641 62.3301H250.631Z" fill="white"/>
<path d="M280.67 43.0801H309.46C311.79 43.0801 313.73 45.3301 313.73 48.1201V84.7501C313.73 87.5401 311.87 89.7901 309.46 89.7901H280.67C278.34 89.7901 276.4 87.5401 276.4 84.7501V48.1301C276.4 45.3401 278.34 43.0901 280.67 43.0901V43.0801Z" fill="white"/>
<path d="M306.361 75.6797H284.631V77.3097H306.361V75.6797Z" fill="#867FB6"/>
<path d="M309.07 79.9492H281.83V81.5792H309.07V79.9492Z" fill="#867FB6"/>
<path d="M305.5 61.3191C305.5 63.0291 305.03 64.6591 304.18 66.1291C303.33 67.5991 302.08 68.8491 300.61 69.6991C299.14 70.5491 297.43 71.0191 295.64 71.0991C293.93 71.0991 292.15 70.7091 290.6 69.9391C289.05 69.1691 287.73 67.9191 286.8 66.4491C285.87 64.9791 285.33 63.3491 285.33 61.5591C285.25 59.8491 285.72 58.1491 286.57 56.6691C287.42 55.1991 288.67 53.8791 290.22 53.0191C291.77 52.1691 293.48 51.6991 295.26 51.6191C297.05 51.6191 298.83 52.0091 300.38 52.8591C301.93 53.7091 303.25 54.9591 304.11 56.4291C304.96 57.8991 305.51 59.6091 305.51 61.3191H305.5Z" fill="#867FB6"/>
<path d="M295.41 60.9283C296.88 60.9283 298.13 59.6883 298.13 58.2083C298.13 56.7283 296.89 55.4883 295.41 55.4883C293.93 55.4883 292.69 56.7283 292.69 58.2083C292.69 59.6883 293.85 60.9283 295.41 60.9283Z" fill="white"/>
<path d="M295.41 62.3301C291.3 62.3301 289.98 65.0501 289.98 65.0501V66.4501H300.85V65.0501C300.85 65.0501 299.53 62.3301 295.42 62.3301H295.41Z" fill="white"/>
<path d="M188.77 96.0898H217.56C219.89 96.0898 221.83 98.3398 221.83 101.13V137.76C221.83 140.55 219.97 142.8 217.56 142.8H188.77C186.44 142.8 184.5 140.55 184.5 137.76V101.13C184.58 98.3398 186.44 96.0898 188.77 96.0898Z" fill="white"/>
<path d="M214.46 128.689H192.81V130.319H214.46V128.689Z" fill="#867FB6"/>
<path d="M217.18 132.879H189.94V134.509H217.18V132.879Z" fill="#867FB6"/>
<path d="M213.61 114.329C213.61 116.039 213.14 117.669 212.29 119.139C211.44 120.609 210.19 121.859 208.72 122.709C207.25 123.559 205.54 124.029 203.75 124.109C202.04 124.109 200.26 123.719 198.71 122.949C197.16 122.179 195.84 120.929 194.91 119.459C193.98 117.989 193.44 116.359 193.44 114.569C193.36 112.859 193.83 111.159 194.68 109.679C195.53 108.209 196.78 106.889 198.33 106.029C199.88 105.179 201.59 104.709 203.37 104.629C205.16 104.629 206.94 105.019 208.49 105.869C210.04 106.719 211.36 107.969 212.22 109.439C213.15 110.909 213.62 112.619 213.62 114.329H213.61Z" fill="#867FB6"/>
<path d="M203.521 113.938C204.991 113.938 206.241 112.698 206.241 111.218C206.241 109.738 205.001 108.498 203.521 108.498C202.041 108.498 200.801 109.738 200.801 111.218C200.801 112.698 202.041 113.938 203.521 113.938Z" fill="white"/>
<path d="M203.521 115.26C199.411 115.26 198.091 117.98 198.091 117.98V119.38H208.961V117.98C208.961 117.98 207.641 115.26 203.531 115.26H203.521Z" fill="white"/>
<path d="M235.88 96.0898H264.67C267 96.0898 268.94 98.3398 268.94 101.13V137.76C268.94 140.55 267.08 142.8 264.67 142.8H235.88C233.55 142.8 231.61 140.55 231.61 137.76V101.13C231.69 98.3398 233.55 96.0898 235.88 96.0898Z" fill="white"/>
<path d="M261.57 128.689H239.92V130.319H261.57V128.689Z" fill="#867FB6"/>
<path d="M264.291 132.879H237.051V134.509H264.291V132.879Z" fill="#867FB6"/>
<path d="M260.721 114.329C260.721 116.039 260.251 117.669 259.401 119.139C258.551 120.609 257.301 121.859 255.831 122.709C254.361 123.559 252.651 124.029 250.861 124.109C249.071 124.189 247.371 123.719 245.821 122.949C244.271 122.179 242.951 120.929 242.021 119.459C241.091 117.989 240.551 116.359 240.551 114.569C240.471 112.859 240.941 111.159 241.791 109.679C242.641 108.209 243.891 106.889 245.441 106.029C246.991 105.179 248.701 104.709 250.481 104.629C252.271 104.629 254.051 105.019 255.601 105.869C257.151 106.719 258.471 107.969 259.331 109.439C260.261 110.909 260.731 112.619 260.731 114.329H260.721Z" fill="#867FB6"/>
<path d="M250.631 113.938C252.101 113.938 253.351 112.698 253.351 111.218C253.351 109.738 252.111 108.498 250.631 108.498C249.151 108.498 247.911 109.738 247.911 111.218C247.911 112.698 249.151 113.938 250.631 113.938Z" fill="white"/>
<path d="M250.631 115.26C246.521 115.26 245.201 117.98 245.201 117.98V119.38H256.071V117.98C256.071 117.98 254.751 115.26 250.641 115.26H250.631Z" fill="white"/>
<path d="M280.67 96.0898H309.46C311.79 96.0898 313.73 98.3398 313.73 101.13V137.76C313.73 140.55 311.87 142.8 309.46 142.8H280.67C278.34 142.8 276.4 140.55 276.4 137.76V101.13C276.4 98.3398 278.34 96.0898 280.67 96.0898Z" fill="white"/>
<path d="M306.361 128.689H284.631V130.319H306.361V128.689Z" fill="#867FB6"/>
<path d="M309.07 132.879H281.83V134.509H309.07V132.879Z" fill="#867FB6"/>
<path d="M305.5 114.329C305.5 116.039 305.03 117.669 304.18 119.139C303.33 120.609 302.08 121.859 300.61 122.709C299.14 123.559 297.43 124.029 295.64 124.109C293.85 124.189 292.15 123.719 290.6 122.949C289.05 122.179 287.73 120.929 286.8 119.459C285.87 117.989 285.33 116.359 285.33 114.569C285.25 112.859 285.72 111.159 286.57 109.679C287.42 108.209 288.67 106.889 290.22 106.029C291.77 105.179 293.48 104.709 295.26 104.629C297.05 104.629 298.83 105.019 300.38 105.869C301.93 106.719 303.25 107.969 304.11 109.439C304.96 110.909 305.51 112.619 305.51 114.329H305.5Z" fill="#867FB6"/>
<path d="M295.41 113.938C296.88 113.938 298.13 112.698 298.13 111.218C298.13 109.738 296.89 108.498 295.41 108.498C293.93 108.498 292.69 109.738 292.69 111.218C292.69 112.698 293.85 113.938 295.41 113.938Z" fill="white"/>
<path d="M295.41 115.26C291.3 115.26 289.98 117.98 289.98 117.98V119.38H300.85V117.98C300.85 117.98 299.53 115.26 295.42 115.26H295.41Z" fill="white"/>
<path d="M83.73 101.1H112.52C114.85 101.1 116.79 103.35 116.79 106.14V142.77C116.79 145.56 114.93 147.81 112.52 147.81H83.73C81.4 147.81 79.46 145.56 79.46 142.77V106.14C79.46 103.35 81.4 101.1 83.73 101.1Z" fill="white"/>
<path d="M109.42 133.689H87.6904V135.319H109.42V133.689Z" fill="#867FB6"/>
<path d="M112.13 137.889H84.8896V139.519H112.13V137.889Z" fill="#867FB6"/>
<path d="M108.56 119.339C108.56 121.049 108.09 122.679 107.24 124.149C106.39 125.619 105.14 126.869 103.67 127.719C102.2 128.569 100.49 129.039 98.6997 129.119C96.9097 129.199 95.2097 128.729 93.6597 127.959C92.1097 127.189 90.7897 125.939 89.8597 124.469C88.9297 122.999 88.3897 121.369 88.3897 119.579C88.3097 117.869 88.7797 116.169 89.6297 114.689C90.4797 113.219 91.7297 111.899 93.2797 111.039C94.8297 110.189 96.5397 109.719 98.3197 109.639C100.11 109.639 101.89 110.029 103.44 110.879C104.99 111.729 106.31 112.979 107.17 114.449C108.02 115.919 108.57 117.629 108.57 119.339H108.56Z" fill="#867FB6"/>
<path d="M98.47 118.948C99.94 118.948 101.19 117.708 101.19 116.228C101.19 114.748 99.95 113.508 98.47 113.508C96.99 113.508 95.75 114.748 95.75 116.228C95.75 117.708 96.91 118.948 98.47 118.948Z" fill="white"/>
<path d="M98.47 120.27C94.36 120.27 93.04 122.99 93.04 122.99V124.39H103.91V122.99C103.91 122.99 102.59 120.27 98.48 120.27H98.47Z" fill="white"/>
<path d="M98.0498 265.75L78.4898 258.53L58.6998 265.75C58.1598 265.98 57.5398 265.67 57.3798 265.13C57.2998 265.05 57.2998 264.9 57.2998 264.74C57.2998 264.35 57.5298 263.96 57.9198 263.81L78.4898 254.26L98.8198 263.81C99.2098 263.97 99.4398 264.35 99.4398 264.74C99.4398 265.28 98.9698 265.83 98.4298 265.83C98.2698 265.83 98.1998 265.75 98.0398 265.75H98.0498Z" fill="#263238"/>
<path opacity="0.3" d="M98.0498 265.75L78.4898 258.53L58.6998 265.75C58.1598 265.98 57.5398 265.67 57.3798 265.13C57.2998 265.05 57.2998 264.9 57.2998 264.74C57.2998 264.35 57.5298 263.96 57.9198 263.81L78.4898 254.26L98.8198 263.81C99.2098 263.97 99.4398 264.35 99.4398 264.74C99.4398 265.28 98.9698 265.83 98.4298 265.83C98.2698 265.83 98.1998 265.75 98.0398 265.75H98.0498Z" fill="white"/>
<path opacity="0.2" d="M73.9092 260.16L78.4892 258.53L82.9092 260.16V256.28L78.4892 254.26L73.9092 256.36V260.16Z" fill="#222222"/>
<path d="M78.4101 265.83C77.4801 265.83 76.7801 265.13 76.6201 264.28L76.0801 258.46V210.34H80.6601V258.46L80.1201 264.28C80.0401 265.21 79.2701 265.83 78.4101 265.83Z" fill="#263238"/>
<path opacity="0.3" d="M78.4101 265.83C77.4801 265.83 76.7801 265.13 76.6201 264.28L76.0801 258.46V210.34H80.6601V258.46L80.1201 264.28C80.0401 265.21 79.2701 265.83 78.4101 265.83Z" fill="white"/>
<path opacity="0.2" d="M80.6601 210.41H76.0801V216H80.6601V210.41Z" fill="#222222"/>
<path d="M68.1697 160.82C68.8697 160.82 69.5697 161.21 69.8797 161.83C78.2597 175.8 81.2097 192.33 78.3397 208.4C78.2597 209.25 77.5597 209.87 76.7097 209.95C75.4697 210.03 52.8797 209.95 52.1097 209.95C50.8697 209.95 49.7797 209.02 49.7797 207.78V207.31C52.4197 192.41 49.5497 177.04 41.7897 164C41.2497 162.99 41.5597 161.75 42.5697 161.13C42.8797 160.97 43.2697 160.82 43.6597 160.9C44.3597 160.82 66.7097 160.82 68.1897 160.82H68.1697Z" fill="#352A86"/>
<path opacity="0.2" d="M68.1697 160.82C68.8697 160.82 69.5697 161.21 69.8797 161.83C78.2597 175.8 81.2097 192.33 78.3397 208.4C78.2597 209.25 77.5597 209.87 76.7097 209.95C75.4697 210.03 52.8797 209.95 52.1097 209.95C50.8697 209.95 49.7797 209.02 49.7797 207.78V207.31C52.4197 192.41 49.5497 177.04 41.7897 164C41.2497 162.99 41.5597 161.75 42.5697 161.13C42.8797 160.97 43.2697 160.82 43.6597 160.9C44.3597 160.82 66.7097 160.82 68.1897 160.82H68.1697Z" fill="#222222"/>
<path d="M49.8501 207.229C52.4901 192.329 49.6201 176.959 41.8601 163.919C40.4601 161.589 44.1101 159.499 45.5101 161.819C53.8901 175.789 56.8401 192.319 53.9701 208.389C53.4301 211.029 49.3101 209.939 49.8601 207.229H49.8501Z" fill="#352A86"/>
<g opacity="0.1">
<path d="M49.8501 207.229C52.4901 192.329 49.6201 176.959 41.8601 163.919C40.4601 161.589 44.1101 159.499 45.5101 161.819C53.8901 175.789 56.8401 192.319 53.9701 208.389C53.4301 211.029 49.3101 209.939 49.8601 207.229H49.8501Z" fill="white"/>
</g>
<path d="M120.089 205.989C114.889 204.669 109.609 203.969 104.329 203.819C98.8193 203.659 78.3293 203.819 73.4393 203.819C67.4593 203.819 61.5693 204.519 55.8193 205.989C52.1693 206.919 53.3393 212.119 56.5993 212.199H119.149C122.489 212.359 123.729 206.919 120.079 205.989H120.089Z" fill="#352A86"/>
<path opacity="0.3" d="M120.089 205.989C114.889 204.669 109.609 203.969 104.329 203.819C98.8193 203.659 78.3293 203.819 73.4393 203.819C67.4593 203.819 61.5693 204.519 55.8193 205.989C52.1693 206.919 53.3393 212.119 56.5993 212.199H119.149C122.489 212.359 123.729 206.919 120.079 205.989H120.089Z" fill="#222222"/>
<path d="M57.4596 212.12C67.9396 209.48 78.8796 209.48 89.3596 212.12C93.3196 213.13 94.9496 207 91.0696 205.99C79.5096 203.04 67.3996 203.04 55.8296 205.99C51.7896 207 53.4996 213.13 57.4596 212.12Z" fill="#8277D3"/>
<path d="M114.11 171.76L121.17 172.54L123.5 171.53C124.04 171.3 124.66 171.3 125.21 171.53L126.68 172.15C127.46 172.46 128.31 172.31 128.93 171.84C129.86 171.06 129.94 169.67 129.16 168.74C129.08 168.58 128.93 168.51 128.85 168.43L126.75 166.8C126.05 166.26 125.2 166.18 124.42 166.57L120.31 168.74L114.8 167.5L114.1 171.77L114.11 171.76Z" fill="#EAA286"/>
<path d="M106.82 145.379L104.34 167.109L118.23 168.119L117.61 173.089C117.61 173.089 103.56 175.569 98.4397 174.179C93.3197 172.789 100.15 149.269 100.15 149.269L106.82 145.389V145.379Z" fill="#352A86"/>
<path opacity="0.6" d="M106.82 145.379L104.34 167.109L118.23 168.119L117.61 173.089C117.61 173.089 103.56 175.569 98.4397 174.179C93.3197 172.789 100.15 149.269 100.15 149.269L106.82 145.389V145.379Z" fill="white"/>
<path opacity="0.1" d="M102.39 172.15C98.7399 170.29 103.63 152.2 105.34 146.23L100.14 149.26C100.14 149.26 93.3099 172.78 98.4299 174.17C101.61 175.02 108.13 174.48 112.71 173.86C109.61 173.86 105.03 173.55 102.39 172.15Z" fill="#222222"/>
<path d="M94.5497 187.831C84.3097 189.771 73.8297 190.311 63.4297 189.621C63.4297 189.621 65.8397 161.761 74.2997 146.551C75.6197 144.141 77.8697 142.281 80.5097 141.511C86.5597 139.651 96.3397 137.941 106.82 145.391C106.82 145.391 101.54 155.251 94.5597 187.841L94.5497 187.831Z" fill="#A399E8"/>
<path d="M99.5994 152.28C99.5994 152.75 99.2094 153.13 98.7494 153.13C98.2894 153.13 97.8994 152.74 97.8994 152.28C97.8994 151.82 98.2894 151.43 98.7494 151.43C99.2194 151.51 99.5994 151.82 99.5994 152.28Z" fill="#352A86"/>
<path d="M96.6492 160.821C96.6492 161.291 96.2592 161.671 95.7992 161.671C95.3392 161.671 94.9492 161.281 94.9492 160.821C94.9492 160.361 95.3392 159.971 95.7992 159.971C96.2692 160.051 96.6492 160.361 96.6492 160.821Z" fill="#352A86"/>
<path d="M93.1596 173.001C93.629 173.001 94.0096 172.62 94.0096 172.151C94.0096 171.681 93.629 171.301 93.1596 171.301C92.6901 171.301 92.3096 171.681 92.3096 172.151C92.3096 172.62 92.6901 173.001 93.1596 173.001Z" fill="#352A86"/>
<path d="M91.7596 181.62C91.7596 182.09 91.3696 182.47 90.9096 182.47C90.4496 182.47 90.0596 182.08 90.0596 181.62C90.0596 181.16 90.4496 180.77 90.9096 180.77C91.3796 180.77 91.7596 181.16 91.7596 181.62Z" fill="#352A86"/>
<path opacity="0.1" d="M100.61 163.071L90.0501 165.481L81.7501 163.231L78.4901 153.841L77.7901 148.561H75.4601C75.4601 148.561 73.2101 165.321 80.8201 172.231C85.5501 176.501 93.3201 173.701 98.4401 170.991C99.2201 168.041 99.9901 165.401 100.61 163.071Z" fill="#222222"/>
<path d="M107.44 238.43L103.79 254.34L108.37 256.13L114.89 240.14L107.44 238.43Z" fill="#EAA286"/>
<path d="M108.06 255.119L103.95 252.949C103.79 252.869 103.56 252.869 103.41 253.029L100.46 256.439C100.23 256.749 100.23 257.219 100.54 257.449C100.54 257.449 100.62 257.529 100.7 257.529C102.41 258.379 104.04 259.159 106.13 260.319C108.61 261.719 107.84 261.639 110.79 263.269C112.58 264.279 113.97 262.419 113.27 261.869C110.09 259.539 109.62 257.989 108.92 256.049C108.76 255.579 108.45 255.269 108.07 255.119H108.06Z" fill="#263238"/>
<path d="M70.6499 189.07L92.9199 187.83C92.9199 187.83 129.94 193.65 129.4 203.97C128.86 214.29 113.88 246.97 113.88 246.97L105.03 244.49C105.03 244.49 111.78 211.66 116.13 206.23C116.13 206.23 88.4999 202.97 81.5199 201.19C77.7199 200.18 68.5599 201.89 70.6499 189.08V189.07Z" fill="#352A86"/>
<path opacity="0.2" d="M112.41 205.829C112.57 202.729 111.94 199.699 110.7 196.899C108.68 192.239 91.6897 189.449 83.6097 188.359L70.7297 189.059C68.6297 201.869 77.7897 200.159 81.5997 201.169C86.8797 202.569 104.57 204.899 112.41 205.829Z" fill="#222222"/>
<path d="M92.2998 242.859L91.7598 259.149L96.6498 259.389L99.9098 243.089L92.2998 242.859Z" fill="#EAA286"/>
<path d="M96.2597 257.909L91.5297 257.989C91.2997 257.989 91.1397 258.149 91.1397 258.379L90.2097 262.879C90.1297 263.269 90.3697 263.659 90.7497 263.729H90.9097C92.9297 263.649 94.6397 263.499 97.1197 263.499C100.07 263.419 99.2897 263.809 102.71 263.809C104.81 263.809 105.12 261.479 104.26 261.329C100.22 260.939 99.0597 259.699 97.5097 258.299C97.1997 257.989 96.7297 257.829 96.2697 257.909H96.2597Z" fill="#263238"/>
<path d="M76.6301 189.07C76.6301 189.07 106.43 190.16 108.22 199.24C110.01 208.32 99.9901 249.22 99.9901 249.22H91.0601C91.0601 249.22 92.0701 212.51 95.1001 204.83C95.1001 204.83 70.5001 208.71 64.0601 203.12C59.4001 199.16 64.9101 189.07 64.9101 189.07H76.6301Z" fill="#352A86"/>
<path d="M104.33 242.619L115.43 245.729L113.41 249.999L103.25 247.429L104.33 242.619Z" fill="#263238"/>
<path opacity="0.3" d="M104.33 242.619L115.43 245.729L113.41 249.999L103.25 247.429L104.33 242.619Z" fill="#222222"/>
<path d="M104.949 167.491L114.029 165.391L119.459 168.421C119.999 168.731 120.309 169.201 120.389 169.821L120.699 173.081C120.779 174.091 120.079 174.941 119.069 175.021H118.759C118.369 175.021 117.979 174.791 117.669 174.481L113.089 169.901L105.099 172.311L104.939 167.501L104.949 167.491Z" fill="#EAA286"/>
<path d="M90.1299 246.971L101.38 247.511L100.3 252.011L90.1299 251.471V246.971Z" fill="#263238"/>
<path opacity="0.3" d="M90.1299 246.971L101.38 247.511L100.3 252.011L90.1299 251.471V246.971Z" fill="#222222"/>
<path d="M76.0794 145.38C77.7894 142.82 80.5794 140.1 87.5694 162.92L106.969 167.03L107.589 172.77C107.589 172.77 91.9894 172.69 85.1594 171.37C78.3294 170.05 71.2694 152.51 76.0794 145.37V145.38Z" fill="#8277D3"/>
<path d="M97.8897 137.459L93.9297 141.189C93.9297 141.189 95.4797 145.999 99.4397 145.999C103.4 145.999 100.99 139.869 100.99 139.869L97.8897 137.459Z" fill="#EAA286"/>
<path d="M100.06 148.789L102 147.779L102.85 146.539L102.54 142.739C99.36 141.109 95.87 140.179 92.37 139.949L92.21 141.739L94.38 147.949L96.86 148.799H100.04L100.06 148.789Z" fill="#EAA286"/>
<path opacity="0.1" d="M101 139.859L97.8999 137.449L97.3599 137.919C97.0499 139.709 96.7399 143.509 98.7599 144.979C99.3799 145.519 100.23 145.679 101.01 145.449C102.64 143.979 101.01 139.859 101.01 139.859H101Z" fill="#222222"/>
<path d="M98.8995 149.259L101.85 150.809C103.95 148.329 103.4 144.829 102.94 142.969C102.63 142.809 102.24 142.579 101.93 142.429C102.32 145.149 102.01 148.249 98.7495 148.329C93.6295 148.489 92.8495 141.889 92.6995 139.949L91.6095 139.869C89.9795 147.169 94.5595 150.809 94.5595 150.809L98.9095 149.259H98.8995Z" fill="#8277D3"/>
<path d="M111.63 128.221C114.5 130.081 113.65 134.661 110.7 136.601C109.85 131.241 111.63 128.221 111.63 128.221Z" fill="#263238"/>
<path opacity="0.4" d="M111.63 128.221C114.5 130.081 113.65 134.661 110.7 136.601C109.85 131.241 111.63 128.221 111.63 128.221Z" fill="#222222"/>
<path d="M98.67 131.25C97.58 136.14 96.73 138.86 98.44 142.12C100.07 145.3 103.95 146.54 107.13 144.91C108.29 144.29 109.23 143.36 109.92 142.19C112.17 138.23 113.49 130.94 109.45 127.6C106.73 125.19 102.62 125.5 100.21 128.22C99.36 129.07 98.89 130.16 98.66 131.25H98.67Z" fill="#EAA286"/>
<path d="M98.1197 135.75C100.68 137.07 102.39 132.57 102 130.32C105.34 132.65 112.94 132.26 115.19 129.23C117.6 125.82 113.95 123.02 110.69 121.93C109.84 121.7 108.98 122.24 108.75 123.09V123.25C108.75 123.41 108.59 123.56 108.52 123.64C107.82 123.02 107.05 122.55 106.27 122.09C105.11 121.55 103.71 121.78 102.86 122.71C102.47 123.02 101.54 123.1 99.6797 122.48C95.7997 121.16 95.0997 125.43 97.0397 126.21C95.3297 127.3 92.4597 130.17 94.0097 132.65C95.5597 135.13 96.8797 138.55 96.0297 139.09C96.6497 139.4 98.0497 138.55 98.1297 135.75H98.1197Z" fill="#263238"/>
<path d="M95.72 134.66C95.72 135.75 96.19 136.83 96.96 137.61C97.97 138.62 99.13 137.84 99.44 136.52C99.67 135.28 99.44 133.26 98.12 132.72C96.8 132.18 95.71 133.34 95.71 134.66H95.72Z" fill="#EAA286"/>
<path d="M105.42 134.9C105.34 135.29 105.42 135.68 105.65 135.75C105.88 135.82 106.19 135.59 106.35 135.21C106.51 134.83 106.35 134.43 106.04 134.36C105.73 134.29 105.5 134.52 105.42 134.9Z" fill="#263238"/>
<path d="M109.769 136.22C109.689 136.61 109.769 137 109.999 137.07C110.229 137.14 110.539 136.91 110.699 136.53C110.859 136.15 110.699 135.75 110.389 135.68C110.079 135.61 109.849 135.91 109.769 136.22Z" fill="#263238"/>
<path d="M108.289 136.061C108.449 137.381 108.679 138.701 109.139 139.941C108.519 140.171 107.819 140.101 107.199 139.711L108.289 136.061Z" fill="#E0896E"/>
<path d="M104.49 133.031C104.436 133.031 104.41 133.004 104.41 132.951C104.33 132.871 104.33 132.721 104.41 132.641C105.03 132.171 105.81 132.021 106.51 132.251C106.67 132.331 106.67 132.411 106.67 132.561C106.59 132.721 106.51 132.721 106.36 132.721C105.82 132.561 105.2 132.641 104.73 133.031C104.65 133.031 104.57 133.031 104.5 133.031H104.49Z" fill="#263238"/>
<path d="M112.019 135.36C111.939 135.36 111.859 135.28 111.859 135.2C111.779 134.58 111.389 134.04 110.849 133.73C110.769 133.65 110.689 133.5 110.769 133.42C110.849 133.34 110.929 133.26 110.999 133.34C111.699 133.73 112.159 134.35 112.239 135.13C112.239 135.29 112.159 135.36 112.079 135.36C112.079 135.36 112.079 135.36 111.999 135.36H112.019Z" fill="#263238"/>
<path d="M105.11 141.03C105.34 141.11 105.58 141.11 105.73 141.19C105.81 141.19 105.89 141.19 105.89 141.11C105.89 141.03 105.81 140.95 105.81 140.95C104.65 140.79 103.64 140.17 103.09 139.16C103.09 139.08 103.01 139.08 102.93 139.08C102.85 139.08 102.85 139.16 102.85 139.24C103.24 140.09 104.09 140.71 105.1 141.03H105.11Z" fill="#263238"/>
<path d="M97.4997 126.359C96.4097 126.049 95.4797 125.199 95.2497 124.109C95.1697 123.799 94.8597 123.639 94.5497 123.799C94.3897 123.879 94.3196 123.959 94.2396 124.109C93.6196 125.509 93.3097 127.449 97.4997 126.359Z" fill="#222222"/>
<path d="M130.33 132.34H128.08C126.14 132.34 124.51 133.89 124.28 135.83L122.34 157.56C122.11 159.27 123.35 160.82 125.06 161.05H127.78L130.34 132.33L130.33 132.34Z" fill="#352A86"/>
<path opacity="0.3" d="M130.33 132.34H128.08C126.14 132.34 124.51 133.89 124.28 135.83L122.34 157.56C122.11 159.27 123.35 160.82 125.06 161.05H127.78L130.34 132.33L130.33 132.34Z" fill="white"/>
<path d="M163.399 161.049H127.079C125.369 161.129 123.899 159.729 123.899 158.019V157.549L125.839 135.819C126.069 133.879 127.699 132.409 129.639 132.329H165.959C167.669 132.249 169.139 133.649 169.139 135.359V135.829L167.199 157.559C166.969 159.499 165.339 160.969 163.399 161.049Z" fill="#352A86"/>
<path opacity="0.2" d="M163.399 161.049H127.079C125.369 161.129 123.899 159.729 123.899 158.019V157.549L125.839 135.819C126.069 133.879 127.699 132.409 129.639 132.329H165.959C167.669 132.249 169.139 133.649 169.139 135.359V135.829L167.199 157.559C166.969 159.499 165.339 160.969 163.399 161.049Z" fill="#222222"/>
<path d="M144.85 171.451H147.64L146.55 158.801C146.47 158.101 145.85 157.561 145.15 157.561C144.37 157.561 143.75 158.181 143.75 158.961V159.121L144.84 171.461L144.85 171.451Z" fill="#263238"/>
<path opacity="0.3" d="M144.85 171.451H147.64L146.55 158.801C146.47 158.101 145.85 157.561 145.15 157.561C144.37 157.561 143.75 158.181 143.75 158.961V159.121L144.84 171.461L144.85 171.451Z" fill="white"/>
<path d="M153.69 175.1C153.85 171.06 150.66 167.65 146.63 167.49C142.59 167.33 139.18 170.52 139.02 174.55V175.02H153.69V175.1Z" fill="#352A86"/>
<path opacity="0.5" d="M153.69 175.1C153.85 171.06 150.66 167.65 146.63 167.49C142.59 167.33 139.18 170.52 139.02 174.55V175.02H153.69V175.1Z" fill="white"/>
<path d="M136.46 175.101H124.9C124.12 175.101 123.5 174.481 123.5 173.701C123.5 172.921 124.12 172.301 124.9 172.301H136.46C137.24 172.301 137.86 172.921 137.86 173.701C137.86 174.481 137.24 175.101 136.46 175.101Z" fill="#352A86"/>
<path opacity="0.3" d="M136.46 175.101H124.9C124.12 175.101 123.5 174.481 123.5 173.701C123.5 172.921 124.12 172.301 124.9 172.301H136.46C137.24 172.301 137.86 172.921 137.86 173.701C137.86 174.481 137.24 175.101 136.46 175.101Z" fill="white"/>
<path d="M125.6 175.101H114.04C113.26 175.101 112.64 174.481 112.64 173.701C112.64 172.921 113.26 172.301 114.04 172.301H125.6C126.38 172.301 127 172.921 127 173.701C127 174.481 126.38 175.101 125.6 175.101Z" fill="#352A86"/>
<path opacity="0.5" d="M125.6 175.101H114.04C113.26 175.101 112.64 174.481 112.64 173.701C112.64 172.921 113.26 172.301 114.04 172.301H125.6C126.38 172.301 127 172.921 127 173.701C127 174.481 126.38 175.101 125.6 175.101Z" fill="white"/>
<path d="M203.36 121.82C201.16 124.68 200.76 128.62 200.88 130.64C201.03 133.14 197.77 133.25 198.68 137.6C199.46 141.37 197.18 142.54 197.23 145.49C197.35 152.32 203.48 154.34 214.92 152.32C226.35 150.3 219.49 139.86 221.01 135.75C222.54 131.64 221.33 122 218.27 122.43C218.6 115.17 207.76 116.12 203.36 121.82Z" fill="#263238"/>
<path d="M222.46 160.979C221.76 160.979 221.06 161.369 220.75 161.989C212.37 175.959 209.42 192.489 212.29 208.559C212.37 209.409 213.07 210.029 213.92 210.109C215.16 210.189 237.67 210.109 238.52 210.109C239.76 210.109 240.85 209.099 240.85 207.859V207.469C238.21 192.569 241.08 177.199 248.84 164.159C249.38 163.149 249.07 161.909 248.06 161.289C247.75 161.129 247.36 160.979 246.97 161.059C246.27 160.979 223.92 160.979 222.44 160.979H222.46Z" fill="#352A86"/>
<path opacity="0.2" d="M222.46 160.979C221.76 160.979 221.06 161.369 220.75 161.989C212.37 175.959 209.42 192.489 212.29 208.559C212.37 209.409 213.07 210.029 213.92 210.109C215.16 210.189 237.67 210.109 238.52 210.109C239.76 210.109 240.85 209.099 240.85 207.859V207.469C238.21 192.569 241.08 177.199 248.84 164.159C249.38 163.149 249.07 161.909 248.06 161.289C247.75 161.129 247.36 160.979 246.97 161.059C246.27 160.979 223.92 160.979 222.44 160.979H222.46Z" fill="#222222"/>
<path d="M240.77 207.389C238.13 192.489 241 177.119 248.76 164.079C250.16 161.749 246.51 159.659 245.11 161.979C236.73 175.949 233.78 192.479 236.65 208.549C237.19 211.189 241.23 210.099 240.76 207.389H240.77Z" fill="#352A86"/>
<g opacity="0.2">
<path d="M240.77 207.389C238.13 192.489 241 177.119 248.76 164.079C250.16 161.749 246.51 159.659 245.11 161.979C236.73 175.949 233.78 192.479 236.65 208.549C237.19 211.189 241.23 210.099 240.76 207.389H240.77Z" fill="white"/>
</g>
<path d="M226.96 265.83L207.4 258.61L187.61 265.83C187.07 266.06 186.45 265.75 186.29 265.21C186.21 265.13 186.21 264.98 186.21 264.82C186.21 264.43 186.44 264.04 186.83 263.89L207.4 254.34L227.73 263.89C228.12 264.05 228.35 264.43 228.35 264.82C228.35 265.36 227.88 265.91 227.34 265.91C227.18 265.91 227.11 265.91 226.95 265.83H226.96Z" fill="#263238"/>
<path opacity="0.3" d="M226.96 265.83L207.4 258.61L187.61 265.83C187.07 266.06 186.45 265.75 186.29 265.21C186.21 265.13 186.21 264.98 186.21 264.82C186.21 264.43 186.44 264.04 186.83 263.89L207.4 254.34L227.73 263.89C228.12 264.05 228.35 264.43 228.35 264.82C228.35 265.36 227.88 265.91 227.34 265.91C227.18 265.91 227.11 265.91 226.95 265.83H226.96Z" fill="white"/>
<path opacity="0.2" d="M202.82 260.4L207.4 258.69L211.83 260.32V256.51L207.4 254.42L202.82 256.59V260.4Z" fill="#222222"/>
<path d="M207.32 266.06C206.47 266.06 205.69 265.36 205.61 264.51L205.07 258.69V210.57H209.65V258.69L209.11 264.51C208.95 265.36 208.18 266.06 207.32 266.06Z" fill="#263238"/>
<path opacity="0.3" d="M207.32 266.06C206.47 266.06 205.69 265.36 205.61 264.51L205.07 258.69V210.57H209.65V258.69L209.11 264.51C208.95 265.36 208.18 266.06 207.32 266.06Z" fill="white"/>
<path opacity="0.2" d="M209.65 210.57H205.07V216.16H209.65V210.57Z" fill="#222222"/>
<path d="M171.231 206.14C176.431 204.82 181.711 204.12 186.991 203.97C192.501 203.81 212.991 203.97 217.881 203.97C223.861 203.97 229.751 204.67 235.501 206.14C239.151 207.07 237.981 212.27 234.721 212.35H172.171C168.831 212.51 167.591 207.15 171.241 206.14H171.231Z" fill="#352A86"/>
<path opacity="0.3" d="M171.231 206.14C176.431 204.82 181.711 204.12 186.991 203.97C192.501 203.81 212.991 203.97 217.881 203.97C223.861 203.97 229.751 204.67 235.501 206.14C239.151 207.07 237.981 212.27 234.721 212.35H172.171C168.831 212.51 167.591 207.15 171.241 206.14H171.231Z" fill="#222222"/>
<path d="M233.87 212.28C223.39 209.64 212.45 209.64 201.97 212.28C198.01 213.29 196.38 207.24 200.26 206.15C211.82 203.2 223.93 203.2 235.5 206.15C239.46 207.16 237.83 213.29 233.87 212.28Z" fill="#8277D3"/>
<path d="M203.75 135.129C203.75 135.129 199.95 134.739 201.11 129.079C202.27 123.419 202.2 118.059 210.66 118.599C210.66 118.599 217.33 116.969 219.2 123.179C221.07 129.389 223.86 133.889 219.43 135.749C213.84 138.079 212.44 132.959 212.44 132.959L204.29 133.739L203.75 135.139V135.129Z" fill="#263238"/>
<path d="M202.51 143.429C197.7 142.729 200.03 159.569 195.68 162.679C193.27 164.309 181.24 159.889 181.24 159.889L179.53 154.459C179.45 154.149 179.22 153.919 178.99 153.839L176.51 152.829C175.97 152.669 175.42 152.909 175.27 153.449C175.19 153.609 175.19 153.839 175.27 153.989L176.2 158.029C176.2 158.189 176.36 158.339 176.43 158.499L179.92 162.229C179.92 162.229 194.28 169.219 197.77 168.049C201.81 166.729 203.36 159.279 204.37 154.859C205.07 151.449 206.23 143.919 202.51 143.449V143.429Z" fill="#EAA286"/>
<path d="M196.92 244.17L198.4 255.51L194.29 255.66L191.26 244.72L196.92 244.17Z" fill="#EAA286"/>
<path d="M194.21 254.959H198.94C199.17 254.959 199.33 255.119 199.41 255.269L200.34 259.689C200.42 260.079 200.18 260.469 199.8 260.539H199.64C197.7 260.539 195.99 260.379 193.51 260.379C190.64 260.379 191.34 260.689 188 260.769C185.98 260.769 185.59 258.439 186.45 258.359C190.41 257.889 191.49 256.649 193.05 255.259C193.36 255.029 193.75 254.949 194.21 254.949V254.959Z" fill="#263238"/>
<path opacity="0.1" d="M192.97 251L191.26 244.72L196.92 244.17L197.78 250.77L192.97 251Z" fill="#222222"/>
<path d="M211.13 176.11H204.46C203.37 179.14 202.67 182.24 202.36 185.42C202.05 190.15 211.13 186.66 211.13 186.66L211.91 180.14L211.13 176.1V176.11Z" fill="#263238"/>
<path d="M168.671 228.499L164.251 241.299L160.601 240.219L163.551 226.709L168.671 228.499Z" fill="#EAA286"/>
<path d="M160.68 239.28L165.18 240.68C165.41 240.76 165.49 240.91 165.49 241.15L165.33 245.65C165.33 246.04 165.02 246.35 164.63 246.35H164.4C162.54 245.81 160.83 245.26 158.5 244.64C155.71 243.94 156.33 244.41 153.07 243.63C151.13 243.16 151.36 240.84 152.22 240.91C156.18 241.45 157.58 240.37 159.36 239.36C159.75 239.13 160.21 239.13 160.68 239.28Z" fill="#263238"/>
<path opacity="0.1" d="M166.27 235.479L161.92 234.319L163.55 226.709L168.67 228.499L166.27 235.479Z" fill="#222222"/>
<path d="M224.4 175.49C224.4 175.49 231.15 186.82 229.99 196.29C228.83 205.76 220.06 210.8 186.37 194.66C186.37 194.66 179.46 201.8 167.98 232.46L162.16 230.67C162.16 230.67 168.76 195.28 174.66 185.19C180.56 175.1 206.79 186.98 208.81 184.96C210.6 183.17 209.04 176.19 209.04 176.19L224.41 175.49H224.4Z" fill="#352A86"/>
<path d="M169.45 231.909L168.21 234.239L161.22 231.909V229.199L169.45 231.909Z" fill="#222222"/>
<path d="M227.11 145.139L203.21 143.349C201.89 143.269 200.8 144.199 200.73 145.449V145.839C200.96 147.159 201.12 148.479 201.12 149.879C200.89 152.439 199.57 156.169 200.03 157.949C200.42 159.349 201.82 160.899 202.44 162.449C203.68 165.859 203.91 176.729 203.91 176.729C211.59 177.969 225.33 176.109 225.33 176.109C222.23 165.009 226.88 152.049 228.28 146.699C228.44 145.999 228.05 145.299 227.35 145.149C227.27 145.229 227.19 145.229 227.12 145.149L227.11 145.139Z" fill="#A399E8"/>
<path opacity="0.1" d="M223.62 158.26L215.39 166.72L203.67 169.05H203.59C203.67 170.37 203.75 171.69 203.82 172.78C207.08 172.78 217.71 172.55 220.74 169.91C222.29 168.44 223.53 166.65 224.47 164.71C224.63 162.85 224.86 160.91 225.25 159.04L223.62 158.26Z" fill="#222222"/>
<path opacity="0.2" d="M182.57 197.839L180.71 196.439C180.71 196.439 174.19 199.929 177.45 209.939C179.16 206.289 181.1 202.719 183.19 199.229L182.57 197.829V197.839Z" fill="#222222"/>
<path d="M210.66 203.97C204.53 202.5 196.61 199.55 186.37 194.66C186.37 194.66 178.45 194.74 177.91 200.64C177.37 206.54 191.26 247.21 191.26 247.21L197.62 246.67C197.62 246.67 193.82 206.16 192.96 203.98H210.66V203.97Z" fill="#352A86"/>
<path opacity="0.2" d="M186.37 194.66C185.44 194.66 184.51 194.82 183.65 195.05C187.92 198.7 192.73 201.72 197.93 203.98H210.66C204.61 202.51 196.61 199.63 186.37 194.67V194.66Z" fill="#222222"/>
<path d="M198.48 245.57L198.63 248.21L191.18 248.83L190.09 246.27L198.48 245.57Z" fill="#222222"/>
<path d="M215.86 134.039L210.66 139.159C211.51 143.349 208.41 143.739 208.41 143.739C208.41 143.739 208.64 145.209 212.45 144.979C214.16 144.979 215.79 144.749 217.49 144.359C215.24 142.649 215.55 137.059 215.86 134.039Z" fill="#EAA286"/>
<path opacity="0.1" d="M210.74 141.57C210.9 140.79 210.9 139.94 210.66 139.16L215.32 134.58L215.79 135.12C215.79 135.12 214.86 140.94 210.75 141.56L210.74 141.57Z" fill="#222222"/>
<path d="M216.33 127.29C216.72 132.33 216.95 134.43 214.86 137.3C211.6 141.65 205.39 141.03 203.53 136.21C201.82 131.86 201.51 124.41 206.09 121.77C209.35 119.83 213.54 120.99 215.48 124.25C215.95 125.18 216.26 126.19 216.33 127.28V127.29Z" fill="#EAA286"/>
<path d="M206.08 132.34C205.85 133.35 205.46 134.28 204.99 135.13C205.46 135.36 206 135.36 206.46 135.21L206.07 132.34H206.08Z" fill="#E0896E"/>
<path d="M209.89 128.92C209.89 128.92 209.97 128.92 209.97 128.84C210.05 128.76 210.05 128.61 209.97 128.53C209.43 128.06 208.65 127.83 207.87 127.99C207.79 127.99 207.71 128.15 207.71 128.22C207.71 128.29 207.87 128.38 207.94 128.38C208.56 128.22 209.18 128.38 209.65 128.85C209.73 128.93 209.81 128.93 209.88 128.93L209.89 128.92Z" fill="#222222"/>
<path d="M202.43 129.62C202.43 129.62 202.51 129.62 202.51 129.54C202.9 129.07 203.52 128.84 204.14 128.84C204.22 128.84 204.37 128.76 204.37 128.68C204.37 128.6 204.29 128.45 204.21 128.45C203.43 128.37 202.74 128.68 202.19 129.3C202.11 129.38 202.11 129.53 202.19 129.61C202.27 129.61 202.35 129.69 202.42 129.61L202.43 129.62Z" fill="#222222"/>
<path d="M208.88 131.329C208.96 131.719 208.8 132.109 208.49 132.109C208.18 132.109 207.95 131.879 207.95 131.409C207.95 130.939 208.03 130.629 208.34 130.629C208.65 130.629 208.81 130.859 208.88 131.329Z" fill="#222222"/>
<path d="M204.22 131.95C204.3 132.34 204.14 132.73 203.83 132.73C203.52 132.73 203.29 132.5 203.21 132.03C203.13 131.56 203.29 131.25 203.6 131.25C203.91 131.25 204.22 131.48 204.22 131.95Z" fill="#222222"/>
<path d="M203.83 131.25L202.82 131.09C202.82 131.09 203.36 131.79 203.83 131.25Z" fill="#222222"/>
<path d="M208.41 130.629L207.4 130.469C207.4 130.469 207.94 131.169 208.41 130.629Z" fill="#222222"/>
<path d="M209.191 135.359C209.271 135.199 209.351 135.049 209.421 134.889C209.421 134.835 209.394 134.782 209.341 134.729C209.287 134.729 209.234 134.755 209.181 134.809C208.871 135.589 208.251 136.209 207.471 136.439C207.391 136.439 207.391 136.519 207.391 136.519C207.391 136.599 207.471 136.599 207.471 136.599C208.251 136.519 208.791 136.059 209.181 135.359H209.191Z" fill="#263238"/>
<path d="M212.45 119.92C209.27 119.14 205.85 120.77 205.85 120.77C205.85 120.77 202.12 124.11 202.98 127.29C203.37 126.98 203.83 126.82 204.3 126.67C204.14 125.43 204.53 124.26 205.23 123.26C205 124.35 205.07 125.43 205.39 126.44C206.94 126.28 208.49 126.44 209.97 126.98C209.97 126.98 210.59 125.66 209.97 122.79C210.82 124.26 211.29 125.97 211.29 127.68C211.29 130.63 215.17 131.41 215.17 131.41C215.17 131.41 217.58 131.18 217.58 127.92C217.58 124.66 215.64 120.78 212.46 119.93L212.45 119.92Z" fill="#263238"/>
<path d="M218.03 131.09C217.87 132.02 217.33 132.95 216.56 133.5C215.47 134.28 214.54 133.42 214.46 132.18C214.38 131.09 214.85 129.39 216.09 129.08C217.02 128.92 217.88 129.47 218.03 130.4C218.11 130.63 218.11 130.79 218.03 131.1V131.09Z" fill="#EAA286"/>
<path d="M227.43 145.059C225.02 144.279 221.84 153.359 220.44 156.159C219.9 157.319 218.97 159.959 218.27 162.059C217.73 163.849 216.25 165.239 214.47 165.789L201.74 169.359L196.54 167.809C196.15 167.649 195.76 167.729 195.38 167.969L192.74 169.759C192.35 169.989 192.12 170.459 192.12 170.919C192.12 171.699 192.74 172.319 193.44 172.319H193.6L201.28 171.699C201.28 171.699 213.7 172.399 219.13 169.369C224.56 166.339 231.55 146.469 227.43 145.079V145.059Z" fill="#EAA286"/>
<path d="M217.57 172.379H173.49C172.79 172.379 172.25 172.919 172.25 173.619C172.25 174.319 172.79 174.779 173.49 174.779H217.57C218.27 174.779 218.73 174.239 218.73 173.619C218.73 172.919 218.19 172.379 217.57 172.379Z" fill="#263238"/>
<path opacity="0.3" d="M217.57 172.379H173.49C172.79 172.379 172.25 172.919 172.25 173.619C172.25 174.319 172.79 174.779 173.49 174.779H217.57C218.27 174.779 218.73 174.239 218.73 173.619C218.73 172.919 218.19 172.379 217.57 172.379Z" fill="white"/>
<path d="M174.11 174.009H189.17C189.48 174.009 189.71 173.779 189.71 173.469C189.71 173.389 189.71 173.309 189.63 173.239L181.4 149.649C181.17 149.029 180.55 148.559 179.85 148.559H164.79C164.48 148.559 164.25 148.789 164.25 149.099V149.329L172.48 172.919C172.79 173.619 173.41 174.009 174.11 174.009Z" fill="#263238"/>
<path opacity="0.5" d="M174.11 174.009H189.17C189.48 174.009 189.71 173.779 189.71 173.469C189.71 173.389 189.71 173.309 189.63 173.239L181.4 149.649C181.17 149.029 180.55 148.559 179.85 148.559H164.79C164.48 148.559 164.25 148.789 164.25 149.099V149.329L172.48 172.919C172.79 173.619 173.41 174.009 174.11 174.009Z" fill="white"/>
<path d="M173.41 174.009H188.47C188.78 174.009 189.01 173.779 189.01 173.469C189.01 173.389 189.01 173.309 188.93 173.239L180.7 149.649C180.47 149.029 179.85 148.559 179.15 148.559H164.09C163.78 148.559 163.55 148.789 163.55 149.099V149.329L171.78 172.919C172.09 173.619 172.71 174.009 173.41 174.009Z" fill="#263238"/>
<path opacity="0.2" d="M191.1 174.789C190.4 174.789 189.86 174.249 189.86 173.629C189.86 172.929 190.4 172.389 191.1 172.389H217.49C218.19 172.389 218.65 172.929 218.65 173.629C218.65 174.329 218.11 174.789 217.49 174.789H191.1Z" fill="white"/>
<path d="M322.42 265.83C323.27 265.83 323.97 265.05 323.97 264.2V264.12L319.62 179.99H315.04L320.78 264.43C320.78 265.21 321.56 265.9 322.41 265.83H322.42Z" fill="#263238"/>
<path opacity="0.5" d="M322.42 265.83C323.27 265.83 323.97 265.05 323.97 264.2V264.12L319.62 179.99H315.04L320.78 264.43C320.78 265.21 321.56 265.9 322.41 265.83H322.42Z" fill="white"/>
<path opacity="0.2" d="M319.63 179.99H315.13L315.51 185.58H319.94L319.63 179.99Z" fill="#222222"/>
<path d="M258.62 265.83C257.77 265.83 257.07 265.05 257.07 264.2V264.12L261.34 179.99H265.92L260.18 264.43C260.1 265.21 259.4 265.9 258.63 265.83H258.62Z" fill="#263238"/>
<path opacity="0.5" d="M258.62 265.83C257.77 265.83 257.07 265.05 257.07 264.2V264.12L261.34 179.99H265.92L260.18 264.43C260.1 265.21 259.4 265.9 258.63 265.83H258.62Z" fill="white"/>
<path opacity="0.2" d="M261.03 185.58H265.53L265.92 179.99H261.34L261.03 185.58Z" fill="#222222"/>
<path d="M157.029 265.83C157.879 265.83 158.579 265.05 158.579 264.2V264.12L154.309 179.99H149.729L155.469 264.43C155.549 265.21 156.25 265.83 157.02 265.83H157.029Z" fill="#263238"/>
<path opacity="0.5" d="M157.029 265.83C157.879 265.83 158.579 265.05 158.579 264.2V264.12L154.309 179.99H149.729L155.469 264.43C155.549 265.21 156.25 265.83 157.02 265.83H157.029Z" fill="white"/>
<path opacity="0.2" d="M154.32 179.99H149.74L150.12 185.58H154.63L154.32 179.99Z" fill="#222222"/>
<path d="M93.2394 265.83C92.3894 265.83 91.6895 265.05 91.6895 264.2V264.12L96.0395 179.99H100.619L94.8794 264.43C94.8794 265.28 94.0995 265.9 93.2495 265.83H93.2394Z" fill="#263238"/>
<path opacity="0.5" d="M93.2394 265.83C92.3894 265.83 91.6895 265.05 91.6895 264.2V264.12L96.0395 179.99H100.619L94.8794 264.43C94.8794 265.28 94.0995 265.9 93.2495 265.83H93.2394Z" fill="white"/>
<path opacity="0.2" d="M95.7197 185.58H100.14L100.53 179.99H95.9497L95.7197 185.58Z" fill="#222222"/>
<path d="M323.36 177.352H91.6104V179.992H323.36V177.352Z" fill="#263238"/>
<path opacity="0.3" d="M323.36 177.352H91.6104V179.992H323.36V177.352Z" fill="white"/>
<path opacity="0.2" d="M323.28 177.352H256.92V179.992H323.28V177.352Z" fill="#222222"/>
<path d="M329.33 174.631H85.6299V177.271H329.33V174.631Z" fill="#352A86"/>
<path opacity="0.3" d="M329.249 174.631H250.939V177.271H329.249V174.631Z" fill="#222222"/>
<path d="M275.39 174.788H263.83C263.05 174.788 262.43 174.168 262.43 173.388C262.43 172.608 263.05 171.988 263.83 171.988H275.39C276.17 171.988 276.79 172.608 276.79 173.388C276.79 174.168 276.17 174.788 275.39 174.788Z" fill="#352A86"/>
<path opacity="0.3" d="M275.39 174.788H263.83C263.05 174.788 262.43 174.168 262.43 173.388C262.43 172.608 263.05 171.988 263.83 171.988H275.39C276.17 171.988 276.79 172.608 276.79 173.388C276.79 174.168 276.17 174.788 275.39 174.788Z" fill="white"/>
<path d="M264.52 174.788H252.96C252.18 174.788 251.56 174.168 251.56 173.388C251.56 172.608 252.18 171.988 252.96 171.988H264.52C265.3 171.988 265.92 172.608 265.92 173.388C265.92 174.168 265.3 174.788 264.52 174.788Z" fill="#352A86"/>
<path opacity="0.5" d="M264.52 174.788H252.96C252.18 174.788 251.56 174.168 251.56 173.388C251.56 172.608 252.18 171.988 252.96 171.988H264.52C265.3 171.988 265.92 172.608 265.92 173.388C265.92 174.168 265.3 174.788 264.52 174.788Z" fill="white"/>
<path d="M225.72 132.72H223.47C221.76 132.64 220.29 134.04 220.29 135.75V136.22L222.23 157.95C222.46 159.89 224.09 161.44 226.03 161.44H228.28L225.72 132.72Z" fill="#352A86"/>
<path d="M225.72 132.72H223.47C221.76 132.64 220.29 134.04 220.29 135.75V136.22L222.23 157.95C222.46 159.89 224.09 161.44 226.03 161.44H228.28L225.72 132.72Z" fill="#352A86"/>
<path d="M244.58 171.14H241.78L243.03 157.17H245.82L244.58 171.14Z" fill="#263238"/>
<path opacity="0.3" d="M244.58 171.14H241.78L243.03 157.17H245.82L244.58 171.14Z" fill="white"/>
<path d="M263.82 161.439H227.5C225.56 161.439 223.93 159.889 223.7 157.949L221.76 136.219C221.53 134.509 222.77 132.959 224.48 132.729H261.35C263.29 132.729 264.92 134.279 265.15 136.219L267.09 157.949C267.25 159.659 266 161.209 264.3 161.439H263.83H263.82Z" fill="#352A86"/>
<path opacity="0.5" d="M263.82 161.439H227.5C225.56 161.439 223.93 159.889 223.7 157.949L221.76 136.219C221.53 134.509 222.77 132.959 224.48 132.729H261.35C263.29 132.729 264.92 134.279 265.15 136.219L267.09 157.949C267.25 159.659 266 161.209 264.3 161.439H263.83H263.82Z" fill="white"/>
<path opacity="0.5" d="M261.42 134.119H225.1C224.09 134.119 223.24 134.899 223.16 135.979V136.209L225.1 157.939C225.26 159.099 226.19 160.039 227.35 160.039H263.67C264.68 160.039 265.53 159.189 265.61 158.179V157.949L263.67 136.219C263.59 135.059 262.66 134.199 261.42 134.119Z" fill="white"/>
<path d="M236.43 174.788C236.59 170.748 239.92 167.568 244.04 167.728C247.92 167.888 251.03 170.988 251.1 174.788H236.43Z" fill="#352A86"/>
<path opacity="0.5" d="M236.43 174.788C236.59 170.748 239.92 167.568 244.04 167.728C247.92 167.888 251.03 170.988 251.1 174.788H236.43Z" fill="white"/>
<path d="M253.27 139.479H233.32C232.93 139.479 232.62 139.789 232.62 140.179V140.259C232.7 140.729 233.01 141.039 233.47 141.039H253.42C253.81 141.039 254.12 140.729 254.12 140.339V140.259C254.04 139.869 253.73 139.479 253.27 139.479Z" fill="white"/>
<path d="M250.79 142.738H233.56C233.17 142.738 232.86 143.048 232.86 143.438V143.518C232.94 143.988 233.25 144.298 233.71 144.298H250.94C251.33 144.298 251.64 143.988 251.64 143.598V143.518C251.56 143.128 251.25 142.738 250.79 142.738Z" fill="white"/>
<path d="M252.8 146H233.86C233.47 146 233.16 146.31 233.16 146.7V146.78C233.16 147.25 233.55 147.56 234.01 147.56H252.95C253.34 147.56 253.65 147.25 253.65 146.86V146.78C253.57 146.39 253.26 146 252.8 146Z" fill="white"/>
<path d="M250.32 149.26H234.18C233.79 149.26 233.48 149.57 233.48 149.96V150.04C233.56 150.51 233.87 150.82 234.33 150.82H250.47C250.86 150.82 251.17 150.51 251.17 150.12V150.04C251.17 149.57 250.78 149.26 250.32 149.26Z" fill="white"/>
<g opacity="0.6">
<path d="M253.27 139.479H233.32C232.93 139.479 232.62 139.789 232.62 140.179V140.259C232.7 140.729 233.01 141.039 233.47 141.039H253.42C253.81 141.039 254.12 140.729 254.12 140.339V140.259C254.04 139.869 253.73 139.479 253.27 139.479Z" fill="white"/>
<path d="M250.79 142.738H233.56C233.17 142.738 232.86 143.048 232.86 143.438V143.518C232.94 143.988 233.25 144.298 233.71 144.298H250.94C251.33 144.298 251.64 143.988 251.64 143.598V143.518C251.56 143.128 251.25 142.738 250.79 142.738Z" fill="white"/>
<path d="M252.8 145.998H233.86C233.47 145.998 233.16 146.308 233.16 146.698V146.778C233.16 147.248 233.55 147.558 234.01 147.558H252.95C253.34 147.558 253.65 147.248 253.65 146.858V146.778C253.57 146.388 253.26 145.998 252.8 145.998Z" fill="white"/>
<path d="M250.32 149.258H234.18C233.79 149.258 233.48 149.568 233.48 149.958V150.038C233.56 150.508 233.87 150.818 234.33 150.818H250.47C250.86 150.818 251.17 150.508 251.17 150.118V150.038C251.17 149.568 250.78 149.258 250.32 149.258Z" fill="white"/>
</g>
<path d="M293.78 121.32C293.78 121.32 289.2 122.17 289.28 119.38C289.36 116.59 294.09 117.91 294.09 117.91L293.78 121.32Z" fill="#222222"/>
<path opacity="0.4" d="M293.78 121.32C293.78 121.32 289.2 122.17 289.28 119.38C289.36 116.59 294.09 117.91 294.09 117.91L293.78 121.32Z" fill="#222222"/>
<path d="M290.91 127.988L288.81 131.328C289.59 131.798 290.6 131.948 291.45 131.558L290.91 127.988Z" fill="#E0896E"/>
<path d="M289.67 127.518C289.67 127.988 289.9 128.298 290.14 128.298C290.38 128.298 290.68 127.908 290.68 127.518C290.68 127.128 290.45 126.738 290.21 126.738C289.97 126.738 289.67 127.128 289.67 127.518Z" fill="#222222"/>
<path d="M306.121 124.89C306.281 130.56 306.511 132.96 303.951 136.14C299.911 139.48 293.081 139.87 291.221 134.43C289.511 129.46 289.511 121.08 294.791 118.29C298.591 116.35 303.251 117.82 305.271 121.63C305.811 122.56 306.121 123.73 306.121 124.89Z" fill="#EAA286"/>
<path opacity="0.2" d="M298.13 138.469V138.159C298.05 137.619 297.51 137.229 296.97 137.309H296.89L294.56 137.929C295.65 138.469 296.89 138.629 298.13 138.469Z" fill="#222222"/>
<path d="M291.22 125.579C291.14 125.579 291.06 125.579 290.99 125.499C290.6 125.029 290.14 124.799 289.52 124.879C289.36 124.879 289.29 124.799 289.29 124.719C289.29 124.559 289.37 124.489 289.45 124.489C290.15 124.409 290.85 124.719 291.31 125.269C291.39 125.349 291.39 125.499 291.31 125.579C291.31 125.579 291.31 125.579 291.23 125.579H291.22Z" fill="#222222"/>
<path d="M297.97 137.069L299.22 145.449L306.2 144.059L303.95 135.439L297.97 137.069Z" fill="#EAA286"/>
<path d="M295.101 128.919L293.941 129.849C293.401 127.679 293.631 125.429 294.411 123.409L293.011 121.239L293.24 119.769C293.24 119.769 291.07 116.199 292.77 115.189C294.47 114.179 295.561 116.349 295.561 116.349C295.561 116.349 296.721 112.859 298.821 113.319C300.921 113.779 299.83 115.959 299.83 115.959C299.83 115.959 303.171 113.549 304.721 114.719C306.271 115.889 304.33 117.589 304.33 117.589C304.33 117.589 308.291 117.669 308.441 119.219C308.591 120.769 306.811 120.929 306.811 120.929C306.811 120.929 309.451 121.859 309.371 123.259C309.291 124.659 307.27 124.729 307.27 124.729C307.27 124.729 309.991 126.439 309.371 127.909C309.061 128.759 308.13 129.229 307.27 128.919C307.27 128.919 308.671 130.709 308.201 131.639C307.891 132.179 307.191 132.569 306.571 132.489L304.321 136.529C303.081 136.139 301.761 136.369 300.751 137.229L296.641 130.479L295.091 128.929L295.101 128.919Z" fill="#222222"/>
<path d="M294.4 127.37C294.17 128.53 294.48 129.7 295.1 130.63C295.95 131.87 297.43 131.33 297.97 130.01C298.51 128.77 298.67 126.67 297.35 125.9C296.42 125.36 295.18 125.67 294.63 126.6C294.55 126.83 294.47 127.14 294.4 127.38V127.37Z" fill="#EAA286"/>
<path d="M307.6 143.119L306.2 139.159C302.55 137.839 298.52 138.379 295.49 140.709L299.45 143.039L307.6 143.119Z" fill="#8277D3"/>
<path opacity="0.2" d="M306.98 141.34C303.8 140.56 300.46 140.8 297.43 141.96L299.45 143.12H307.6L306.98 141.33V141.34Z" fill="#8277D3"/>
<path d="M283.07 168.969L277.87 166.329C277.56 166.169 277.25 166.169 276.94 166.329L272.67 168.039C272.28 168.199 271.97 168.579 271.89 169.049L271.81 170.449C271.81 171.069 272.28 171.609 272.9 171.689C273.06 171.689 273.21 171.689 273.37 171.609L274.92 171.069C277.4 172.079 280.2 172.159 282.76 171.299L283.07 168.969Z" fill="#EAA286"/>
<path d="M263.36 169.28L258.24 166.64C257.93 166.48 257.62 166.48 257.31 166.64L253.04 168.35C252.65 168.51 252.34 168.89 252.34 169.36L252.26 170.76C252.18 171.38 252.73 171.92 253.35 172C253.51 172 253.66 172 253.82 171.92L255.37 171.38C257.85 172.39 260.65 172.47 263.21 171.61L263.37 169.28H263.36Z" fill="#EAA286"/>
<path d="M310.47 144.599C307.91 146.769 301.54 153.059 293.32 167.879H282.76C282.76 167.879 281.29 169.119 281.91 172.149C281.91 172.149 292.7 176.029 295.65 174.709C298.6 173.389 308.07 158.879 312.34 153.679C313.81 151.889 316.38 149.489 312.73 144.829C312.19 144.129 311.18 144.049 310.48 144.599H310.47Z" fill="#8277D3"/>
<path opacity="0.2" d="M298.67 165.398L296.11 162.988C295.18 164.538 294.25 166.088 293.32 167.878H290.84L292.47 174.868C293.56 175.098 294.72 175.028 295.73 174.708C296.51 174.318 297.75 173.078 299.22 171.368L298.68 165.388L298.67 165.398Z" fill="#222222"/>
<path d="M296.81 245.958L299.22 257.598L303.95 256.898L302.79 245.568L296.81 245.958Z" fill="#EAA286"/>
<path opacity="0.2" d="M303.56 253.018L302.79 245.568L296.81 245.958L298.28 253.248L303.56 253.018Z" fill="#222222"/>
<path d="M324.98 192.168C324.98 192.168 327.39 204.818 319.16 204.818C310.93 204.818 299.91 207.538 299.91 207.538C299.91 207.538 303.09 210.568 303.79 248.748L296.96 249.058C296.96 249.058 285.63 205.908 287.8 201.168C290.98 194.498 307.28 192.238 307.28 192.238L324.98 192.158V192.168Z" fill="#352A86"/>
<path opacity="0.7" d="M324.98 192.168C324.98 192.168 327.39 204.818 319.16 204.818C310.93 204.818 299.91 207.538 299.91 207.538C299.91 207.538 303.09 210.568 303.79 248.748L296.96 249.058C296.96 249.058 285.63 205.908 287.8 201.168C290.98 194.498 307.28 192.238 307.28 192.238L324.98 192.158V192.168Z" fill="#352A86"/>
<path d="M296.19 247.67L304.11 247.43L304.49 251.31L296.65 251.7L296.19 247.67Z" fill="#352A86"/>
<path opacity="0.5" d="M296.19 247.67L304.11 247.43L304.49 251.31L296.65 251.7L296.19 247.67Z" fill="white"/>
<path d="M297.04 258.3C296.5 258.46 296.03 258.38 295.57 258.07C295.41 257.91 295.41 257.76 295.49 257.6C295.57 257.44 295.65 257.37 295.8 257.29C296.58 256.98 298.44 257.76 298.52 257.76C298.6 257.76 298.6 257.84 298.6 257.84C298.6 257.92 298.52 257.92 298.52 257.92C298.05 258.15 297.59 258.23 297.05 258.31L297.04 258.3ZM296.11 257.45C296.03 257.45 295.95 257.45 295.88 257.53C295.8 257.53 295.72 257.61 295.65 257.69C295.57 257.85 295.65 257.92 295.65 257.92C295.88 258.23 297.2 258.08 298.06 257.84C297.52 257.61 296.82 257.45 296.12 257.45H296.11Z" fill="#352A86"/>
<path d="M298.52 257.989C297.82 257.829 296.5 256.899 296.58 256.279C296.58 256.119 296.66 255.969 296.97 255.889C297.2 255.809 297.44 255.889 297.67 256.049C298.21 256.519 298.52 257.209 298.68 257.909V257.989C298.68 257.989 298.6 257.989 298.52 257.989ZM297.12 256.129C296.89 256.209 296.89 256.289 296.81 256.289C296.81 256.599 297.66 257.379 298.36 257.689C298.2 257.149 297.97 256.599 297.51 256.219C297.43 256.139 297.28 256.139 297.12 256.139V256.129Z" fill="#352A86"/>
<path d="M298.98 257.21L304.41 256.59C304.64 256.59 304.8 256.67 304.88 256.9L306.35 261.17C306.51 261.56 306.27 261.95 305.96 262.1H305.8C303.86 262.33 302.07 262.41 299.67 262.72C296.8 263.11 297.57 263.34 294.24 263.81C292.22 264.04 291.6 261.79 292.38 261.64C296.26 260.71 296.49 259.47 297.89 257.84C298.2 257.45 298.59 257.3 298.98 257.22V257.21Z" fill="#263238"/>
<path opacity="0.1" d="M302.09 202.729H290.06L287.5 203.819C287.73 207.469 288.2 211.119 288.97 214.689L301.08 211.199C300.38 208.099 299.92 207.549 299.92 207.549C299.92 207.549 301.01 207.239 302.79 206.929L302.09 202.739V202.729Z" fill="#222222"/>
<path opacity="0.1" d="M310.24 203.58C310.08 204.28 310.01 204.9 310.01 205.6C312.8 205.21 315.6 204.9 318.39 204.82C320.25 202.88 320.41 199.93 318.78 197.76L313.97 199.93L310.24 203.58Z" fill="#222222"/>
<path d="M282.92 249.06L287.42 259.93L291.76 259.08L288.74 247.43L282.92 249.06Z" fill="#EAA286"/>
<path opacity="0.2" d="M290.76 255.2L288.74 247.43L282.92 249.06L285.79 256.13L290.76 255.2Z" fill="#222222"/>
<path d="M319.08 192.869C319.08 192.869 321.49 205.519 313.26 205.519C305.03 205.519 280.28 213.129 280.28 213.129C280.28 213.129 283.93 214.449 290.21 249.759L283.07 251.389C283.07 251.389 265.22 212.889 267.47 208.159C270.65 201.489 301.46 192.869 301.46 192.869H319.08Z" fill="#352A86"/>
<path opacity="0.7" d="M319.08 192.869C319.08 192.869 321.49 205.519 313.26 205.519C305.03 205.519 280.28 213.129 280.28 213.129C280.28 213.129 283.93 214.449 290.21 249.759L283.07 251.389C283.07 251.389 265.22 212.889 267.47 208.159C270.65 201.489 301.46 192.869 301.46 192.869H319.08Z" fill="#352A86"/>
<path d="M282.14 250.929L290.6 249.139L291.53 252.629L283.38 254.499L282.14 250.929Z" fill="#352A86"/>
<path opacity="0.5" d="M282.14 250.929L290.6 249.139L291.53 252.629L283.38 254.499L282.14 250.929Z" fill="white"/>
<path d="M284.7 260.399C284.16 260.479 283.69 260.479 283.23 260.169C283.07 260.009 283.07 259.859 283.15 259.629C283.23 259.469 283.31 259.399 283.46 259.319C284.24 259.009 286.1 259.789 286.18 259.789C286.26 259.789 286.26 259.869 286.26 259.869C286.26 259.922 286.234 259.949 286.18 259.949C285.71 260.259 285.17 260.419 284.71 260.419L284.7 260.399ZM283.77 259.549C283.69 259.549 283.61 259.549 283.54 259.629C283.46 259.629 283.38 259.709 283.31 259.789C283.23 259.949 283.31 260.019 283.31 260.019C283.54 260.329 284.86 260.179 285.72 259.939C285.18 259.709 284.48 259.549 283.78 259.549H283.77Z" fill="#352A86"/>
<path d="M286.18 260.078C285.48 259.918 284.16 258.988 284.24 258.368C284.24 258.208 284.32 258.058 284.63 257.978C284.86 257.898 285.1 257.978 285.33 258.058C285.87 258.528 286.18 259.148 286.34 259.918V259.998C286.26 260.078 286.18 260.078 286.18 260.078ZM284.71 258.218H284.63C284.4 258.298 284.4 258.378 284.4 258.378C284.4 258.688 285.25 259.468 285.95 259.778C285.79 259.238 285.56 258.688 285.1 258.308C285.02 258.228 284.87 258.228 284.71 258.228V258.218Z" fill="#352A86"/>
<path d="M286.64 259.309L292.07 258.689C292.3 258.689 292.46 258.769 292.54 258.999L294.01 263.269C294.17 263.659 293.93 264.049 293.54 264.199H293.38C291.44 264.429 289.65 264.509 287.25 264.819C284.38 265.129 285.15 265.439 281.82 265.909C279.8 266.219 279.18 263.889 279.96 263.739C283.84 262.809 284.07 261.569 285.47 259.939C285.78 259.549 286.17 259.399 286.63 259.319L286.64 259.309Z" fill="#263238"/>
<path d="M289.82 144.13C289.82 143.12 290.6 142.27 291.61 142.27H291.69L307.6 142.58C311.48 142.66 315.05 144.75 316.91 148.17C320.64 154.77 325.45 168.19 325.37 193.57H298.98C298.9 193.57 289.98 160.66 289.82 144.13Z" fill="#A399E8"/>
<path opacity="0.4" d="M290.21 150.499C290.6 154.299 291.22 158.489 292 162.759C295.96 154.379 293.86 147.549 293.86 147.549L290.21 150.499Z" fill="#222222"/>
<path d="M289.82 142.969C287.96 145.139 285.09 149.489 276.39 165.319L263.04 168.189C263.04 168.189 261.57 169.429 262.19 172.539C262.19 172.539 276.55 175.019 279.42 173.699C282.29 172.379 289.82 161.129 293.31 155.309C294.71 152.899 295.48 148.169 291.21 143.049C290.9 142.659 290.36 142.659 289.97 142.969C289.89 142.889 289.89 142.969 289.81 142.969H289.82Z" fill="#8277D3"/>
<path d="M336.31 265.67L316.75 258.45L296.96 265.67C296.42 265.9 295.8 265.59 295.64 265.05C295.56 264.97 295.56 264.82 295.56 264.66C295.56 264.27 295.79 263.88 296.18 263.73L316.75 254.18L337.08 263.73C337.47 263.89 337.7 264.27 337.7 264.66C337.7 265.2 337.23 265.75 336.69 265.75C336.53 265.75 336.38 265.75 336.3 265.67H336.31Z" fill="#263238"/>
<path opacity="0.3" d="M336.31 265.67L316.75 258.45L296.96 265.67C296.42 265.9 295.8 265.59 295.64 265.05C295.56 264.97 295.56 264.82 295.56 264.66C295.56 264.27 295.79 263.88 296.18 263.73L316.75 254.18L337.08 263.73C337.47 263.89 337.7 264.27 337.7 264.66C337.7 265.2 337.23 265.75 336.69 265.75C336.53 265.75 336.38 265.75 336.3 265.67H336.31Z" fill="white"/>
<path opacity="0.2" d="M312.1 260.16L316.76 258.53L321.1 260.16V256.28L316.76 254.26L312.1 256.36V260.16Z" fill="#222222"/>
<path d="M316.6 265.83C315.75 265.83 314.97 265.13 314.89 264.28L314.35 258.46V210.34H318.93V258.46L318.39 264.28C318.23 265.21 317.54 265.83 316.6 265.83Z" fill="#263238"/>
<path opacity="0.3" d="M316.6 265.83C315.75 265.83 314.97 265.13 314.89 264.28L314.35 258.46V210.34H318.93V258.46L318.39 264.28C318.23 265.21 317.54 265.83 316.6 265.83Z" fill="white"/>
<path opacity="0.2" d="M318.93 210.34H314.35V215.93H318.93V210.34Z" fill="#222222"/>
<path d="M348.34 205.989C343.14 204.669 337.86 203.969 332.58 203.819C327.07 203.659 306.58 203.819 301.69 203.819C295.71 203.819 289.82 204.519 284.07 205.989C280.42 206.919 281.59 212.119 284.85 212.199H347.4C350.81 212.359 352.06 206.919 348.33 205.989H348.34Z" fill="#352A86"/>
<path opacity="0.3" d="M348.34 205.989C343.14 204.669 337.86 203.969 332.58 203.819C327.07 203.659 306.58 203.819 301.69 203.819C295.71 203.819 289.82 204.519 284.07 205.989C280.42 206.919 281.59 212.119 284.85 212.199H347.4C350.81 212.359 352.06 206.919 348.33 205.989H348.34Z" fill="#222222"/>
<path d="M285.79 212.12C296.27 209.48 307.21 209.48 317.69 212.12C321.65 213.13 323.28 207 319.4 205.99C307.84 203.04 295.73 203.04 284.16 205.99C280.2 207 281.83 213.13 285.79 212.12Z" fill="#8277D3"/>
<path d="M331.81 160.819C331.11 160.819 330.41 161.209 330.1 161.829C321.72 175.799 318.77 192.329 321.64 208.399C321.72 209.249 322.42 209.869 323.27 209.949C324.51 210.029 347.02 209.949 347.87 209.949C349.11 209.949 350.2 209.019 350.2 207.779V207.309C347.56 192.409 350.43 177.039 358.19 163.999C359.12 162.369 357.72 160.899 356.33 160.899C355.55 160.739 333.2 160.819 331.8 160.819H331.81Z" fill="#352A86"/>
<path opacity="0.2" d="M331.81 160.819C331.11 160.819 330.41 161.209 330.1 161.829C321.72 175.799 318.77 192.329 321.64 208.399C321.72 209.249 322.42 209.869 323.27 209.949C324.51 210.029 347.02 209.949 347.87 209.949C349.11 209.949 350.2 209.019 350.2 207.779V207.309C347.56 192.409 350.43 177.039 358.19 163.999C359.12 162.369 357.72 160.899 356.33 160.899C355.55 160.739 333.2 160.819 331.8 160.819H331.81Z" fill="#222222"/>
<path d="M325.68 207.229C323.04 192.329 325.91 176.959 333.67 163.919C335.07 161.589 331.42 159.499 330.02 161.819C321.64 175.789 318.69 192.319 321.56 208.389C322.1 211.029 326.14 209.939 325.67 207.229H325.68Z" fill="#352A86"/>
<g opacity="0.2">
<path d="M325.68 207.229C323.04 192.329 325.91 176.959 333.67 163.919C335.07 161.589 331.42 159.499 330.02 161.819C321.64 175.789 318.69 192.319 321.56 208.389C322.1 211.029 326.14 209.939 325.67 207.229H325.68Z" fill="white"/>
</g>
<path d="M153.54 148.559H140.19L140.97 145.609H154.32L153.54 148.559Z" fill="white"/>
<path d="M171.78 162.45H181.09L179.77 159.5H170.46L171.78 162.45Z" fill="white"/>
</g>
<defs>
<clipPath id="clip0_7651_30032">
<rect width="388.06" height="249.91" fill="white" transform="translate(6 25)"/>
</clipPath>
</defs>
</svg>
