<svg width="23" height="22" viewBox="0 0 23 22" fill="none" xmlns="http://www.w3.org/2000/svg">
<path fill-rule="evenodd" clip-rule="evenodd" d="M11.5 1.79492C6.39137 1.79492 2.25 5.93629 2.25 11.0449C2.25 16.1535 6.39137 20.2949 11.5 20.2949C16.6086 20.2949 20.75 16.1535 20.75 11.0449C20.75 5.93629 16.6086 1.79492 11.5 1.79492ZM0.75 11.0449C0.75 5.10786 5.56294 0.294922 11.5 0.294922C17.4371 0.294922 22.25 5.10786 22.25 11.0449C22.25 16.982 17.4371 21.7949 11.5 21.7949C5.56294 21.7949 0.75 16.982 0.75 11.0449ZM11.5 4.29492C11.9142 4.29492 12.25 4.63071 12.25 5.04492V5.36165C13.8804 5.65359 15.25 6.87853 15.25 8.54492C15.25 8.95913 14.9142 9.29492 14.5 9.29492C14.0858 9.29492 13.75 8.95913 13.75 8.54492C13.75 7.70065 12.8765 6.79492 11.5 6.79492C10.1235 6.79492 9.25 7.70065 9.25 8.54492C9.25 9.38922 10.1235 10.2949 11.5 10.2949C13.4372 10.2949 15.25 11.6277 15.25 13.5449C15.25 15.2113 13.8804 16.4362 12.25 16.7282V17.0449C12.25 17.4591 11.9142 17.7949 11.5 17.7949C11.0858 17.7949 10.75 17.4591 10.75 17.0449V16.7282C9.11957 16.4362 7.75 15.2113 7.75 13.5449C7.75 13.1307 8.08579 12.7949 8.5 12.7949C8.91421 12.7949 9.25 13.1307 9.25 13.5449C9.25 14.3892 10.1235 15.2949 11.5 15.2949C12.8765 15.2949 13.75 14.3892 13.75 13.5449C13.75 12.7006 12.8765 11.7949 11.5 11.7949C9.5628 11.7949 7.75 10.4621 7.75 8.54492C7.75 6.87853 9.11957 5.65359 10.75 5.36165V5.04492C10.75 4.63071 11.0858 4.29492 11.5 4.29492Z" fill="white"/>
</svg>
