<svg width="25" height="25" viewBox="0 0 25 25" fill="none" xmlns="http://www.w3.org/2000/svg">
<path d="M15.2511 11.9241C13.3945 11.924 11.681 12.4375 10.4085 13.4659C9.13609 14.4944 8.33591 16.0566 8.33594 17.9752V17.9768V17.9783C8.33612 18.0069 8.33903 19.6986 8.33903 19.6986L8.33594 21.9993H21.9849L21.9964 19.6986C21.9964 19.6986 21.9987 18.8673 21.9995 18.5482C22.0002 18.2291 22.0033 17.9639 22.0025 17.9874V17.9812V17.975C22.0025 15.8642 21.0384 14.29 19.7169 13.3161C18.3955 12.3421 16.7444 11.9238 15.2523 11.9238L15.2511 11.9241ZM15.2511 13.085C16.5239 13.085 17.9609 13.4619 19.0349 14.2535C20.1089 15.0451 20.8496 16.2072 20.8496 17.9752C20.848 18.059 20.8472 18.2309 20.8465 18.5436C20.8457 18.8629 20.845 19.2797 20.8434 19.6955C20.8419 20.109 20.8396 20.5207 20.8373 20.8383H9.49494C9.4934 20.5207 9.49106 20.1085 9.4903 19.6955C9.48799 18.8661 9.48802 18.066 9.48725 17.9752C9.48722 16.3709 10.1059 15.1975 11.1279 14.3714C12.15 13.5454 13.6064 13.085 15.2511 13.085Z" fill="white"/>
<path d="M15.2469 2C12.8217 2 10.8438 3.99035 10.8438 6.43216C10.8438 8.87396 12.8217 10.8658 15.2469 10.8658C17.6721 10.8658 19.6516 8.87396 19.6516 6.43216C19.6516 3.99035 17.6721 2 15.2469 2ZM15.2469 3.16095C17.0507 3.16095 18.4998 4.6189 18.4998 6.43216C18.4998 8.24543 17.0507 9.70488 15.2469 9.70488C13.4431 9.70488 11.9955 8.24543 11.9955 6.43216C11.9955 4.6189 13.4431 3.16095 15.2469 3.16095Z" fill="white"/>
<path d="M8.02586 12.3867C6.29534 12.3867 4.78343 12.8712 3.69918 13.8485C2.61492 14.8258 1.99978 16.2837 2 18.0509V18.0524V18.054C2.00015 18.0848 2.00309 19.7365 2.00309 19.7365L2.01467 22.0009H6.72888H7.36772V20.84H6.72888H3.15806C3.15653 20.5306 3.15578 20.1348 3.15502 19.7349C3.15348 18.9199 3.15269 18.1247 3.15192 18.0479C3.15247 16.5451 3.63923 15.4611 4.46717 14.7148C5.29514 13.9684 6.50654 13.5483 8.023 13.5478C8.19436 13.5493 8.70227 13.5994 8.70227 13.5994C8.70227 13.5994 9.28847 12.8941 9.55421 12.553L8.98582 12.4639C8.6695 12.4142 8.34927 12.3886 8.029 12.3868H8.02745L8.02586 12.3867Z" fill="white"/>
<path d="M7.97135 3.49815C5.78374 3.48267 3.98352 5.26698 3.96884 7.46925C3.95395 9.67152 5.73007 11.4802 7.91769 11.4946C8.86406 11.5 9.77701 11.1647 10.496 10.5568C10.5834 10.483 10.6671 10.4056 10.7481 10.3242L11.0405 10.028L10.3424 9.09243L10.0336 9.41512C9.97701 9.47426 9.81829 9.61532 9.75662 9.66743C9.24604 10.0991 8.59643 10.3378 7.92397 10.3337C6.35758 10.3234 5.10998 9.05045 5.12062 7.47709C5.13114 5.90373 6.39569 4.64797 7.96207 4.65905C8.43963 4.66214 8.90965 4.78685 9.32587 5.02208L9.8279 5.30669C9.8279 5.30669 10.188 4.35825 10.2387 4.21169L9.88911 4.01008C9.30318 3.67892 8.64327 3.50301 7.97135 3.49815Z" fill="white"/>
</svg>
