<svg width="12" height="14" viewBox="0 0 12 14" fill="none" xmlns="http://www.w3.org/2000/svg">
<path d="M5.33335 8.88325V10.9999C5.33335 11.1888 5.39724 11.3471 5.52502 11.4749C5.6528 11.6027 5.81113 11.6666 6.00002 11.6666C6.18891 11.6666 6.34724 11.6027 6.47502 11.4749C6.6028 11.3471 6.66669 11.1888 6.66669 10.9999V8.88325L7.26669 9.48325C7.33335 9.54992 7.40835 9.59992 7.49169 9.63325C7.57502 9.66658 7.65835 9.68047 7.74169 9.67492C7.82502 9.66936 7.90558 9.64992 7.98335 9.61658C8.06113 9.58325 8.13335 9.53325 8.20002 9.46658C8.32224 9.33325 8.38613 9.1777 8.39169 8.99992C8.39724 8.82214 8.33335 8.66658 8.20002 8.53325L6.46669 6.79992C6.40002 6.73325 6.3278 6.68603 6.25002 6.65825C6.17224 6.63047 6.08891 6.61659 6.00002 6.61659C5.91113 6.61659 5.8278 6.63047 5.75002 6.65825C5.67224 6.68603 5.60002 6.73325 5.53335 6.79992L3.80002 8.53325C3.66669 8.66658 3.6028 8.82214 3.60835 8.99992C3.61391 9.1777 3.68335 9.33325 3.81669 9.46658C3.95002 9.58881 4.10558 9.6527 4.28335 9.65825C4.46113 9.66381 4.61669 9.59992 4.75002 9.46658L5.33335 8.88325ZM2.00002 13.6666C1.63335 13.6666 1.31946 13.536 1.05835 13.2749C0.797243 13.0138 0.666687 12.6999 0.666687 12.3333V1.66659C0.666687 1.29992 0.797243 0.98603 1.05835 0.724919C1.31946 0.463808 1.63335 0.333252 2.00002 0.333252H6.78335C6.96113 0.333252 7.13058 0.366585 7.29169 0.433252C7.4528 0.499919 7.59446 0.594363 7.71669 0.716585L10.95 3.94992C11.0722 4.07214 11.1667 4.21381 11.2334 4.37492C11.3 4.53603 11.3334 4.70547 11.3334 4.88325V12.3333C11.3334 12.6999 11.2028 13.0138 10.9417 13.2749C10.6806 13.536 10.3667 13.6666 10 13.6666H2.00002ZM6.66669 4.33325V1.66659H2.00002V12.3333H10V4.99992H7.33335C7.14446 4.99992 6.98613 4.93603 6.85835 4.80825C6.73058 4.68047 6.66669 4.52214 6.66669 4.33325Z" fill="#222222"/>
</svg>
